<svg class="svg-icon" style="width: 1em;height: 1em;vertical-align: middle;fill: currentColor;overflow: hidden;" viewBox="0 0 1024 1024" version="1.1" xmlns="http://www.w3.org/2000/svg"><path d="M912.6 814.5H144c-10.4 0-20.8-0.2-31.3 0h-1.3c-9.4 0-18.4 8.3-18 18 0.4 9.8 7.9 18 18 18H880c10.4 0 20.8 0.2 31.3 0h1.3c9.4 0 18.4-8.3 18-18-0.5-9.8-7.9-18-18-18zM832.5 333.8h-562c-25.9 0-52-1.1-77.9 0h-1.1c3 11.2 6.1 22.4 9.1 33.5 10.6-5.3 21.2-10.6 31.9-15.9 25.5-12.8 51-25.5 76.5-38.3 30.9-15.4 61.7-30.9 92.6-46.3 26.7-13.3 53.4-26.7 80-40 12.9-6.5 26.3-12.4 38.9-19.5l0.6-0.3h-18.2c10.6 5.3 21.2 10.6 31.9 15.9 25.5 12.8 51 25.5 76.5 38.3 30.9 15.4 61.7 30.9 92.6 46.3 26.7 13.3 53.4 26.7 80 40 13 6.5 25.9 13.2 38.9 19.5l0.6 0.3c8.4 4.2 19.9 2.5 24.6-6.5 4.3-8.2 2.5-20.1-6.5-24.6-10.7-5.4-21.4-10.7-32.1-16.1-25.7-12.8-51.4-25.7-77.1-38.5l-93-46.5c-26.6-13.3-53.1-26.6-79.7-39.8-12.7-6.4-25.3-13-38.2-19.1-6.6-3.1-12.5-3.1-19 0-1.4 0.7-2.8 1.4-4.1 2.1-6.5 3.3-13.1 6.5-19.6 9.8-24.2 12.1-48.3 24.2-72.5 36.2-30.8 15.4-61.7 30.8-92.5 46.3-27.9 13.9-55.7 27.9-83.6 41.8l-45.6 22.8c-0.7 0.4-1.4 0.7-2.2 1.1-6.8 3.4-10.6 13.2-8.3 20.3 2.4 7.6 9.2 13.2 17.4 13.2h562c25.9 0 52 0.6 77.9 0h1.1c9.4 0 18.4-8.3 18-18-0.4-9.8-7.9-18-17.9-18z"  /><path d="M289.7 752.3v-39.9V617 501.1v-99.8c0-16.2 0.5-32.6 0-48.8v-0.7c0-9.4-8.3-18.4-18-18-9.8 0.4-18 7.9-18 18v351c0 16.2-0.5 32.6 0 48.8v0.7c0 9.4 8.3 18.4 18 18 9.7-0.4 18-7.9 18-18zM770.3 752.3v-39.9V617 501.1v-99.8c0-16.2 0.5-32.6 0-48.8v-0.7c0-9.4-8.3-18.4-18-18-9.8 0.4-18 7.9-18 18v351c0 16.2-0.5 32.6 0 48.8v0.7c0 9.4 8.3 18.4 18 18 9.8-0.4 18-7.9 18-18zM409.8 752.3v-39.9V617 501.1v-99.8c0-16.2 0.5-32.6 0-48.8v-0.7c0-9.4-8.3-18.4-18-18-9.8 0.4-18 7.9-18 18v351c0 16.2-0.5 32.6 0 48.8v0.7c0 9.4 8.3 18.4 18 18 9.8-0.4 18-7.9 18-18zM530 752.3v-39.9V617 501.1v-99.8c0-16.2 0.5-32.6 0-48.8v-0.7c0-9.4-8.3-18.4-18-18-9.8 0.4-18 7.9-18 18v351c0 16.2-0.5 32.6 0 48.8v0.7c0 9.4 8.3 18.4 18 18 9.8-0.4 18-7.9 18-18zM650.2 752.3v-39.9V617 501.1v-99.8c0-16.2 0.5-32.6 0-48.8v-0.7c0-9.4-8.3-18.4-18-18-9.8 0.4-18 7.9-18 18v351c0 16.2-0.5 32.6 0 48.8v0.7c0 9.4 8.3 18.4 18 18 9.7-0.4 18-7.9 18-18z"  /><path d="M209.5 832.5v-80.1l-18 18h562c25.9 0 52 1.1 77.9 0h1.1l-18-18v80.1c0 9.4 8.3 18.4 18 18 9.8-0.4 18-7.9 18-18v-80.1c0-9.7-8.2-18-18-18h-562c-25.9 0-52-0.6-77.9 0h-1.1c-9.7 0-18 8.2-18 18v80.1c0 9.4 8.3 18.4 18 18 9.8-0.5 18-8 18-18z"  /></svg>