<?xml version="1.0" encoding="utf-8"?>
<!-- Generator: Adobe Illustrator 27.5.0, SVG Export Plug-In . SVG Version: 6.00 Build 0)  -->
<svg version="1.1" xmlns="http://www.w3.org/2000/svg" xmlns:xlink="http://www.w3.org/1999/xlink" x="0px" y="0px"
	 viewBox="0 0 2500 2500" style="enable-background:new 0 0 2500 2500;" xml:space="preserve">
<g id="Background">
	<rect style="fill:#FFFFFF;" width="2500" height="2500"/>
</g>
<g id="Illustration">
	<g id="Rehabilitation_hospital_1_">
		<circle style="fill:#F2E6DC;" cx="1250" cy="1250" r="915"/>
		<g>
			
				<rect x="513.256" y="545.551" transform="matrix(0.9776 -0.2107 0.2107 0.9776 -198.8107 214.0499)" style="fill:#D3BBA3;" width="783.736" height="988.972"/>
			<path style="fill:#363E44;" d="M651.058,1625.718l-0.464-2.155L441.759,654.634l2.155-0.464l768.299-165.593l0.464,2.156
				l208.834,968.928l-2.156,0.464L651.058,1625.718z M447,658.016l207.44,962.461l761.832-164.198l-207.441-962.463L447,658.016z"/>
			<g>
				<polygon style="fill:#F2E6DC;" points="1342.063,1399.468 655.037,1547.544 468.185,680.606 963.747,573.797 1002.754,754.777 
					1194.432,714.501 				"/>
				<polygon style="fill:#E6D0BE;" points="1133.075,758.67 832.356,823.485 804.823,695.742 996.488,654.432 1119.309,694.799 				
					"/>
				
					<rect x="838.502" y="815.56" transform="matrix(0.9776 -0.2107 0.2107 0.9776 -153.7822 227.8316)" style="fill:#E6D0BE;" width="307.625" height="40.099"/>
				<polygon style="fill:#F7F1EB;" points="1194.325,714.006 1002.861,755.272 963.747,573.797 				"/>
				
					<rect x="736.224" y="1068.303" transform="matrix(0.9776 -0.2107 0.2107 0.9776 -211.6196 229.6615)" style="fill:#F7F1EB;" width="471.519" height="79.303"/>
				
					<rect x="711.93" y="943.686" transform="matrix(0.9776 -0.2107 0.2107 0.9776 -185.909 221.7455)" style="fill:#F7F1EB;" width="471.519" height="79.303"/>
				
					<rect x="785.744" y="1319.53" transform="matrix(0.9776 -0.2107 0.2107 0.9776 -263.4398 245.7344)" style="fill:#F7F1EB;" width="471.519" height="79.303"/>
				
					<rect x="761.45" y="1194.912" transform="matrix(0.9776 -0.2107 0.2107 0.9776 -237.7291 237.8185)" style="fill:#F7F1EB;" width="471.519" height="79.303"/>
				
					<rect x="559.693" y="696.68" transform="matrix(0.9768 -0.2142 0.2142 0.9768 -157.5878 162.5954)" style="fill:#FFFFFF;" width="223.441" height="223.441"/>
				
					<ellipse transform="matrix(0.5776 -0.8163 0.8163 0.5776 -578.0323 970.6408)" style="fill:#E6D0BE;" cx="648.908" cy="1043.869" rx="29.688" ry="29.688"/>
				
					<ellipse transform="matrix(0.9835 -0.1808 0.1808 0.9835 -199.5664 141.6948)" style="fill:#D3BBA3;" cx="677.54" cy="1165.648" rx="29.688" ry="29.688"/>
				
					<ellipse transform="matrix(0.5339 -0.8456 0.8456 0.5339 -768.601 1200.2031)" style="fill:#D3BBA3;" cx="704.277" cy="1297.218" rx="29.688" ry="29.688"/>
				
					<ellipse transform="matrix(0.0272 -0.9996 0.9996 0.0272 -711.009 2113.1292)" style="fill:#D3BBA3;" cx="730.209" cy="1421.877" rx="29.688" ry="29.688"/>
				<g>
					<path style="fill:#EFBC73;" d="M678.733,830.343c-25.542,3.331-67.133,28.799-106.074,50.615l13.56,60.502l218.254-47.865
						l-13.904-60.077C759.029,827.476,722.047,826.158,678.733,830.343z"/>
					<g>
						
							<ellipse transform="matrix(0.9772 -0.2123 0.2123 0.9772 -166.3206 165.2204)" style="fill:#84524D;" cx="686.201" cy="857.095" rx="60.848" ry="24.41"/>
						<g>
							<g>
								
									<ellipse transform="matrix(0.9686 -0.2486 0.2486 0.9686 -170.4347 204.3163)" style="fill:#363E44;" cx="723.774" cy="776.995" rx="40.788" ry="40.744"/>
								<path style="fill:#363E44;" d="M729.879,822.157c-19.15,0-36.653-12.896-41.627-32.263
									c-2.853-11.111-1.205-22.67,4.643-32.548c5.848-9.876,15.194-16.888,26.317-19.744c22.968-5.887,46.435,7.97,52.325,30.906
									c5.89,22.936-7.999,46.395-30.961,52.292C737.002,821.717,733.41,822.157,729.879,822.157z M729.91,740.655
									c-3.172,0-6.391,0.394-9.602,1.219c-9.982,2.563-18.37,8.856-23.618,17.719c-5.247,8.862-6.727,19.234-4.166,29.205
									c5.285,20.582,26.346,33.021,46.956,27.73c20.607-5.291,33.071-26.343,27.785-46.924
									C762.804,752.229,747.093,740.655,729.91,740.655z"/>
							</g>
							<path style="fill:#84524D;" d="M684.934,867.871c15.858-3.506,25.875-19.19,22.373-35.031l-17.02-77l-57.427,12.698l17.02,77
								C653.383,861.378,669.076,871.377,684.934,867.871z"/>
							<g>
								<path style="fill:#363E44;" d="M633.998,675.166c11.364-10.622,24.873-11.789,33.99-9.721
									c25.912,5.876,45.405,34.376,46.683,73.624c-38.013,7.142-76.025,14.285-114.039,21.427
									c-9.477-23.349-16.064-48.064-6.118-66.044C607.364,671.222,631.457,675.705,633.998,675.166z"/>
								<path style="fill:#84524D;" d="M606.248,754.468c5.954,31.366,32.443,52.677,59.166,47.601
									c26.722-5.076,43.559-34.618,37.605-65.984c-5.954-31.366-32.026-50.195-58.748-45.119
									C617.549,696.042,600.294,723.102,606.248,754.468z"/>
								<path style="fill:#84524D;" d="M693.11,727.802c-4.307,10.194-0.76,21.424,7.922,25.081
									c8.683,3.658,19.213-1.642,23.52-11.836c4.307-10.194,0.76-21.423-7.922-25.081
									C707.947,712.309,697.417,717.608,693.11,727.802z"/>
								<path style="fill:#84524D;" d="M613.032,743.014c7.743,7.905,8.557,19.653,1.819,26.24
									c-6.738,6.587-18.477,5.518-26.219-2.388c-7.743-7.905-8.557-19.654-1.819-26.24
									C593.55,734.04,605.289,735.109,613.032,743.014z"/>
								<path style="fill:#363E44;" d="M657.459,805.024c-7.819,0-15.614-2.052-22.92-6.077c-1.067-0.588-1.456-1.929-0.868-2.995
									c0.587-1.067,1.93-1.452,2.995-0.868c9.007,4.962,18.801,6.63,28.336,4.819c9.721-1.847,18.353-7.145,24.962-15.321
									c0.767-0.945,2.154-1.092,3.102-0.328c0.946,0.765,1.094,2.154,0.328,3.102c-7.274,8.998-16.807,14.835-27.57,16.88
									C663.049,804.763,660.252,805.024,657.459,805.024z"/>
								<path style="fill:#363E44;" d="M610.862,771.486c-0.845,0-1.65-0.489-2.015-1.31c-1.556-3.498-2.831-7.175-3.793-10.933
									c-0.303-1.18,0.409-2.381,1.589-2.683c1.176-0.305,2.38,0.41,2.683,1.589c0.901,3.519,2.095,6.962,3.549,10.235
									c0.495,1.113-0.007,2.416-1.119,2.91C611.466,771.424,611.161,771.486,610.862,771.486z"/>
								<path style="fill:#363E44;" d="M704.167,753.496c-0.029,0-0.058-0.001-0.087-0.002c-1.217-0.047-2.165-1.072-2.117-2.289
									c0.161-4.13-0.083-8.324-0.724-12.468c-0.186-1.204,0.638-2.331,1.841-2.517c1.206-0.185,2.331,0.637,2.517,1.841
									c0.685,4.424,0.945,8.904,0.772,13.316C706.323,752.565,705.346,753.496,704.167,753.496z"/>
								<path style="fill:#363E44;" d="M655.599,765.914c-0.298,0-0.601-0.061-0.891-0.19c-2.46-1.089-3.958-2.585-4.45-4.445
									c-0.454-1.722,0.112-3.119,0.566-4.241c0.34-0.836,0.633-1.559,0.602-2.487c-0.029-0.855-0.332-1.734-0.901-2.615
									c-0.661-1.023-0.368-2.388,0.655-3.049c1.025-0.661,2.388-0.368,3.049,0.655c1.009,1.561,1.549,3.196,1.605,4.861
									c0.062,1.866-0.507,3.269-0.923,4.294c-0.326,0.802-0.462,1.183-0.39,1.455c0.125,0.473,0.862,1.049,1.971,1.539
									c1.113,0.493,1.617,1.795,1.124,2.909C657.251,765.424,656.445,765.914,655.599,765.914z"/>
								<path style="fill:#363E44;" d="M664.651,775.199c-1.063,0-1.999-0.77-2.175-1.852c-0.195-1.202,0.622-2.335,1.824-2.53
									c1.432-0.232,4.169-0.973,6.406-3.332c1.476-1.557,2.202-3.261,2.55-4.417c0.353-1.165,1.588-1.824,2.749-1.474
									c1.166,0.352,1.826,1.583,1.474,2.748c-0.699,2.313-1.934,4.448-3.573,6.176c-3.128,3.299-6.918,4.33-8.899,4.652
									C664.886,775.19,664.767,775.199,664.651,775.199z"/>
								<g>
									<g>
										<path style="fill:#FFFFFF;" d="M689.166,728.53l-0.138,0.012c-0.024,0.295-0.153,0.687-0.453,0.728
											c-0.286,0.484-0.334,1.197-0.499,1.69c-0.296,0.886-1.652,0.372-1.357-0.513c0.199-0.596-1.566,0.779-2.361,1.249
											c-2.538,1.501-5.133,2.886-7.777,4.191c-1.233,0.609-2.466,1.228-3.72,1.794c-1.005,0.453-4.293,2.133-4.595,2.017
											c-2.993,3.835-4.431,7.226-4.431,7.226s5.458,1.393,12.077,0.633c0.004-0.091,0.01-0.181,0.01-0.273
											c0.004-0.905,14.534-7.028,15.055-6.427c5.716-5.157,8.433-11.532,8.433-11.532S694.931,728.18,689.166,728.53z"/>
										<path style="fill:#363E44;" d="M678.231,731.276c-4.313,2.134-7.613,5.41-9.958,8.414c0.822,2.774,2.63,5.266,5.305,6.879
											c0.689,0.415,1.403,0.75,2.132,1.014c2.987-0.325,6.221-1.083,9.305-2.609c2.23-1.103,4.175-2.518,5.872-4.036
											c1.78-4.2,0.999-8.991-1.858-12.396C685.646,728.76,681.838,729.492,678.231,731.276z"/>
									</g>
									<g>
										<path style="fill:#FFFFFF;" d="M615.165,742.088l0.134-0.034c0.12,0.271,0.37,0.599,0.668,0.539
											c0.429,0.363,0.708,1.021,1.026,1.432c0.57,0.74,1.683-0.192,1.113-0.93c-0.383-0.497,1.734,0.221,2.64,0.404
											c2.89,0.584,5.796,1.039,8.721,1.403c1.364,0.17,2.732,0.35,4.102,0.472c1.098,0.098,4.755,0.604,5.003,0.395
											c4.086,2.639,6.557,5.369,6.557,5.369s-4.698,3.109-11.2,4.566c-0.033-0.085-0.069-0.168-0.099-0.255
											c-0.301-0.854-16.035-1.863-16.33-1.123c-7.092-2.993-11.75-8.121-11.75-8.121S609.606,743.652,615.165,742.088z"/>
										<path style="fill:#363E44;" d="M626.395,741.088c4.774,0.598,8.966,2.608,12.168,4.675
											c0.134,2.891-0.756,5.838-2.753,8.24c-0.514,0.619-1.079,1.17-1.681,1.658c-2.928,0.675-6.232,1.021-9.645,0.593
											c-2.468-0.309-4.77-1.006-6.871-1.883c-3.06-3.382-3.895-8.163-2.314-12.319
											C618.565,741.148,622.403,740.588,626.395,741.088z"/>
									</g>
								</g>
							</g>
						</g>
					</g>
				</g>
			</g>
			<g>
				<path style="fill:#363E44;" d="M789.289,601.692c-18.67,0-36.971-5.353-53.03-15.717
					c-22.029-14.217-37.202-36.162-42.726-61.792c-11.403-52.907,22.363-105.229,75.27-116.632
					c52.926-11.404,105.231,22.365,116.634,75.271c11.403,52.908-22.364,105.23-75.271,116.633
					C803.219,600.952,796.228,601.692,789.289,601.692z M789.503,409.747c-6.524,0-13.14,0.686-19.771,2.116
					c-50.53,10.892-82.779,60.862-71.888,111.393c5.275,24.478,19.768,45.437,40.807,59.014
					c21.038,13.579,46.105,18.151,70.585,12.875c50.531-10.891,82.78-60.862,71.889-111.393
					C871.664,439.852,832.699,409.747,789.503,409.747z"/>
				<path style="fill:#363E44;" d="M789.332,579.877c-14.522,0-28.756-4.163-41.248-12.225
					c-17.134-11.058-28.937-28.128-33.234-48.063c-4.297-19.935-0.573-40.351,10.485-57.486
					c11.059-17.135,28.128-28.938,48.064-33.235c19.937-4.298,40.352-0.573,57.486,10.486
					c17.135,11.058,28.938,28.128,33.235,48.063c4.297,19.936,0.573,40.352-10.486,57.487
					c-11.059,17.134-28.128,28.937-48.062,33.234C800.167,579.303,794.73,579.877,789.332,579.877z M789.628,431.54
					c-5.088,0-10.209,0.543-15.3,1.64c-18.785,4.049-34.868,15.17-45.287,31.315c-10.42,16.145-13.929,35.382-9.88,54.166
					c4.049,18.785,15.17,34.868,31.315,45.287c16.143,10.419,35.378,13.928,54.166,9.88c18.784-4.049,34.867-15.17,45.287-31.315
					c10.419-16.144,13.929-35.38,9.88-54.166c-4.049-18.784-15.17-34.867-31.315-45.287
					C816.724,435.464,803.309,431.54,789.628,431.54z"/>
				
					<rect x="674.044" y="530.691" transform="matrix(0.9776 -0.2107 0.2107 0.9776 -106.1962 183.5201)" style="fill:#D3BBA3;" width="268.225" height="118.888"/>
			</g>
		</g>
		<g>
			
				<ellipse transform="matrix(0.7071 -0.7071 0.7071 0.7071 58.7893 1423.769)" style="fill:#D87355;" cx="1748.036" cy="640.92" rx="154.543" ry="154.543"/>
			<path style="fill:#BC8271;" d="M1747.254,813.11c-0.838,0-1.671-0.005-2.51-0.017c-45.526-0.652-88.072-18.994-119.803-51.646
				c-31.73-32.652-48.845-75.708-48.193-121.233c1.346-93.978,78.864-169.406,172.879-167.996
				c93.979,1.347,169.342,78.901,167.996,172.879c-0.652,45.526-18.995,88.072-51.647,119.803
				C1833.925,796.046,1791.847,813.11,1747.254,813.11z M1747.151,476.61c-90.461,0-164.694,72.923-165.993,163.666
				c-0.636,44.348,16.037,86.289,46.946,118.097c30.91,31.808,72.355,49.675,116.703,50.31
				c44.422,0.674,86.289-16.037,118.097-46.946c31.807-30.909,49.675-72.355,50.31-116.703
				c1.311-91.548-72.101-167.095-163.649-168.407C1748.76,476.616,1747.953,476.61,1747.151,476.61z M1915.418,645.066h0.022
				H1915.418z"/>
			<polygon style="fill:#FFFFFF;" points="1838.771,622.284 1768.252,621.274 1769.263,550.756 1729.401,550.185 1728.39,620.703 
				1657.872,619.693 1657.301,659.555 1727.819,660.565 1726.809,731.083 1766.671,731.655 1767.681,661.136 1838.2,662.146 			"/>
		</g>
		<g>
			<g>
				<rect x="1082.383" y="1239.498" style="fill:#E6D0BE;" width="450.627" height="648.786"/>
				<g>
					<g>
						<rect x="1182.819" y="1296.34" style="fill:#F7F1EB;" width="132.479" height="107.218"/>
						<g>
							<path style="fill:#D3BBA3;" d="M1246.481,1413.176c-1.218,0-2.205-0.987-2.205-2.205v-122.045
								c0-1.218,0.987-2.205,2.205-2.205c1.218,0,2.205,0.987,2.205,2.205v122.045
								C1248.686,1412.189,1247.698,1413.176,1246.481,1413.176z"/>
							<path style="fill:#D3BBA3;" d="M1321.881,1352.154h-150.799c-1.218,0-2.205-0.987-2.205-2.205
								c0-1.218,0.987-2.205,2.205-2.205h150.799c1.218,0,2.205,0.987,2.205,2.205
								C1324.085,1351.167,1323.098,1352.154,1321.881,1352.154z"/>
						</g>
					</g>
					<g>
						<rect x="1353.566" y="1296.34" style="fill:#F7F1EB;" width="132.479" height="107.218"/>
						<g>
							<path style="fill:#D3BBA3;" d="M1417.529,1413.176c-1.218,0-2.205-0.987-2.205-2.205v-122.045
								c0-1.218,0.987-2.205,2.205-2.205c1.218,0,2.205,0.987,2.205,2.205v122.045
								C1419.733,1412.189,1418.746,1413.176,1417.529,1413.176z"/>
							<path style="fill:#D3BBA3;" d="M1492.927,1352.154h-150.799c-1.218,0-2.205-0.987-2.205-2.205
								c0-1.218,0.987-2.205,2.205-2.205h150.799c1.218,0,2.205,0.987,2.205,2.205
								C1495.132,1351.167,1494.145,1352.154,1492.927,1352.154z"/>
						</g>
					</g>
					<g>
						<rect x="1185.017" y="1496.854" style="fill:#F7F1EB;" width="132.479" height="107.218"/>
						<g>
							<path style="fill:#D3BBA3;" d="M1248.679,1613.69c-1.218,0-2.205-0.987-2.205-2.205v-122.045
								c0-1.218,0.987-2.205,2.205-2.205c1.218,0,2.205,0.987,2.205,2.205v122.045
								C1250.884,1612.703,1249.897,1613.69,1248.679,1613.69z"/>
							<path style="fill:#D3BBA3;" d="M1324.079,1552.668H1173.28c-1.218,0-2.205-0.987-2.205-2.205s0.987-2.205,2.205-2.205
								h150.799c1.218,0,2.205,0.987,2.205,2.205S1325.297,1552.668,1324.079,1552.668z"/>
						</g>
					</g>
					<g>
						<rect x="1355.765" y="1496.854" style="fill:#F7F1EB;" width="132.479" height="107.218"/>
						<g>
							<path style="fill:#D3BBA3;" d="M1419.726,1613.69c-1.218,0-2.205-0.987-2.205-2.205v-122.045
								c0-1.218,0.987-2.205,2.205-2.205c1.218,0,2.205,0.987,2.205,2.205v122.045
								C1421.931,1612.703,1420.943,1613.69,1419.726,1613.69z"/>
							<path style="fill:#D3BBA3;" d="M1495.126,1552.668h-150.799c-1.218,0-2.205-0.987-2.205-2.205s0.987-2.205,2.205-2.205
								h150.799c1.218,0,2.205,0.987,2.205,2.205S1496.343,1552.668,1495.126,1552.668z"/>
						</g>
					</g>
					<g>
						<rect x="1187.215" y="1694.853" style="fill:#F7F1EB;" width="132.479" height="107.218"/>
						<g>
							<path style="fill:#D3BBA3;" d="M1250.877,1811.689c-1.218,0-2.205-0.987-2.205-2.205v-122.043
								c0-1.218,0.987-2.205,2.205-2.205c1.218,0,2.205,0.987,2.205,2.205v122.043
								C1253.082,1810.702,1252.095,1811.689,1250.877,1811.689z"/>
							<path style="fill:#D3BBA3;" d="M1326.276,1750.668h-150.798c-1.218,0-2.205-0.987-2.205-2.205
								c0-1.218,0.987-2.205,2.205-2.205h150.798c1.218,0,2.205,0.987,2.205,2.205
								C1328.481,1749.68,1327.494,1750.668,1326.276,1750.668z"/>
						</g>
					</g>
					<g>
						<rect x="1357.963" y="1694.853" style="fill:#F7F1EB;" width="132.479" height="107.218"/>
						<g>
							<path style="fill:#D3BBA3;" d="M1421.924,1811.689c-1.218,0-2.205-0.987-2.205-2.205v-122.043
								c0-1.218,0.987-2.205,2.205-2.205s2.205,0.987,2.205,2.205v122.043C1424.129,1810.702,1423.142,1811.689,1421.924,1811.689z"
								/>
							<path style="fill:#D3BBA3;" d="M1497.324,1750.668h-150.799c-1.218,0-2.205-0.987-2.205-2.205
								c0-1.218,0.987-2.205,2.205-2.205h150.799c1.218,0,2.205,0.987,2.205,2.205
								C1499.529,1749.68,1498.542,1750.668,1497.324,1750.668z"/>
						</g>
					</g>
				</g>
				<rect x="1068.462" y="1206.915" style="fill:#D3BBA3;" width="465.342" height="40.102"/>
			</g>
			<g>
				<rect x="348.682" y="1091.288" style="fill:#E6D0BE;" width="586.21" height="791.133"/>
				<path style="fill:#363E44;" d="M360.014,1876.522c-1.218,0-2.205-0.987-2.205-2.205v-787.643h590.62v770.782
					c0,1.218-0.987,2.205-2.205,2.205s-2.205-0.987-2.205-2.205v-766.373H362.219v783.233
					C362.219,1875.535,361.232,1876.522,360.014,1876.522z"/>
				<g>
					<g>
						<rect x="402.468" y="1332.724" style="fill:#F7F1EB;" width="132.479" height="99.926"/>
						<g>
							<path style="fill:#D3BBA3;" d="M466.131,1441.764c-1.218,0-2.205-0.987-2.205-2.205v-113.744
								c0-1.218,0.987-2.205,2.205-2.205s2.205,0.987,2.205,2.205v113.744C468.336,1440.776,467.348,1441.764,466.131,1441.764z"/>
							<path style="fill:#D3BBA3;" d="M541.53,1384.892H390.732c-1.218,0-2.205-0.987-2.205-2.205c0-1.218,0.987-2.205,2.205-2.205
								H541.53c1.218,0,2.205,0.987,2.205,2.205C543.734,1383.904,542.747,1384.892,541.53,1384.892z"/>
						</g>
					</g>
					<g>
						<rect x="573.216" y="1332.724" style="fill:#F7F1EB;" width="132.479" height="99.926"/>
						<g>
							<path style="fill:#D3BBA3;" d="M637.178,1441.764c-1.218,0-2.205-0.987-2.205-2.205v-113.744
								c0-1.218,0.987-2.205,2.205-2.205s2.205,0.987,2.205,2.205v113.744C639.382,1440.776,638.395,1441.764,637.178,1441.764z"/>
							<path style="fill:#D3BBA3;" d="M712.578,1384.892H561.779c-1.218,0-2.205-0.987-2.205-2.205c0-1.218,0.987-2.205,2.205-2.205
								h150.799c1.218,0,2.205,0.987,2.205,2.205C714.782,1383.904,713.795,1384.892,712.578,1384.892z"/>
						</g>
					</g>
					<g>
						<rect x="743.964" y="1332.724" style="fill:#F7F1EB;" width="132.479" height="99.926"/>
						<g>
							<path style="fill:#D3BBA3;" d="M810.898,1441.764c-1.218,0-2.205-0.987-2.205-2.205v-113.744
								c0-1.218,0.987-2.205,2.205-2.205c1.218,0,2.205,0.987,2.205,2.205v113.744
								C813.102,1440.776,812.115,1441.764,810.898,1441.764z"/>
							<path style="fill:#D3BBA3;" d="M886.296,1384.892H735.499c-1.218,0-2.205-0.987-2.205-2.205c0-1.218,0.987-2.205,2.205-2.205
								h150.798c1.218,0,2.205,0.987,2.205,2.205C888.501,1383.904,887.514,1384.892,886.296,1384.892z"/>
						</g>
					</g>
					<g>
						<rect x="402.468" y="1165.879" style="fill:#F7F1EB;" width="132.479" height="99.926"/>
						<g>
							<path style="fill:#D3BBA3;" d="M466.131,1274.919c-1.218,0-2.205-0.987-2.205-2.205v-113.743
								c0-1.218,0.987-2.205,2.205-2.205s2.205,0.987,2.205,2.205v113.743C468.336,1273.931,467.348,1274.919,466.131,1274.919z"/>
							<path style="fill:#D3BBA3;" d="M541.53,1218.048H390.732c-1.218,0-2.205-0.987-2.205-2.205c0-1.218,0.987-2.205,2.205-2.205
								H541.53c1.218,0,2.205,0.987,2.205,2.205C543.734,1217.061,542.747,1218.048,541.53,1218.048z"/>
						</g>
					</g>
					<g>
						<rect x="573.216" y="1165.879" style="fill:#F7F1EB;" width="132.479" height="99.926"/>
						<g>
							<path style="fill:#D3BBA3;" d="M637.178,1274.919c-1.218,0-2.205-0.987-2.205-2.205v-113.743
								c0-1.218,0.987-2.205,2.205-2.205s2.205,0.987,2.205,2.205v113.743C639.382,1273.931,638.395,1274.919,637.178,1274.919z"/>
							<path style="fill:#D3BBA3;" d="M712.578,1218.048H561.779c-1.218,0-2.205-0.987-2.205-2.205c0-1.218,0.987-2.205,2.205-2.205
								h150.799c1.218,0,2.205,0.987,2.205,2.205C714.782,1217.061,713.795,1218.048,712.578,1218.048z"/>
						</g>
					</g>
					<g>
						<rect x="743.964" y="1165.879" style="fill:#F7F1EB;" width="132.479" height="99.926"/>
						<g>
							<path style="fill:#D3BBA3;" d="M810.898,1274.919c-1.218,0-2.205-0.987-2.205-2.205v-113.743
								c0-1.218,0.987-2.205,2.205-2.205c1.218,0,2.205,0.987,2.205,2.205v113.743
								C813.102,1273.931,812.115,1274.919,810.898,1274.919z"/>
							<path style="fill:#D3BBA3;" d="M886.296,1218.048H735.499c-1.218,0-2.205-0.987-2.205-2.205c0-1.218,0.987-2.205,2.205-2.205
								h150.798c1.218,0,2.205,0.987,2.205,2.205C888.501,1217.061,887.514,1218.048,886.296,1218.048z"/>
						</g>
					</g>
					<g>
						<rect x="402.468" y="1500.447" style="fill:#F7F1EB;" width="132.479" height="99.926"/>
						<g>
							<path style="fill:#D3BBA3;" d="M466.131,1608.608c-1.218,0-2.205-0.987-2.205-2.205V1492.66c0-1.218,0.987-2.205,2.205-2.205
								s2.205,0.987,2.205,2.205v113.743C468.336,1607.62,467.348,1608.608,466.131,1608.608z"/>
							<path style="fill:#D3BBA3;" d="M541.53,1551.735H390.732c-1.218,0-2.205-0.987-2.205-2.205c0-1.218,0.987-2.205,2.205-2.205
								H541.53c1.218,0,2.205,0.987,2.205,2.205C543.734,1550.748,542.747,1551.735,541.53,1551.735z"/>
						</g>
					</g>
					<g>
						<rect x="401.755" y="1680.312" style="fill:#F7F1EB;" width="132.479" height="99.926"/>
						<g>
							<path style="fill:#D3BBA3;" d="M465.717,1788.473c-1.218,0-2.205-0.987-2.205-2.205v-113.744
								c0-1.218,0.987-2.205,2.205-2.205c1.218,0,2.205,0.987,2.205,2.205v113.744
								C467.922,1787.485,466.935,1788.473,465.717,1788.473z"/>
							<path style="fill:#D3BBA3;" d="M541.116,1731.6H390.318c-1.218,0-2.205-0.987-2.205-2.205c0-1.218,0.987-2.205,2.205-2.205
								h150.799c1.218,0,2.205,0.987,2.205,2.205C543.321,1730.613,542.334,1731.6,541.116,1731.6z"/>
						</g>
					</g>
				</g>
				<rect x="339.41" y="1036.133" style="fill:#D87355;" width="623.334" height="60.985"/>
			</g>
			<g>
				<rect x="480.574" y="1442.764" style="fill:#D3BBA3;" width="756.211" height="445.52"/>
				<path style="fill:#363E44;" d="M485.106,1895.021c-1.218,0-2.205-0.987-2.205-2.205v-445.52c0-1.218,0.987-2.205,2.205-2.205
					c1.218,0,2.205,0.987,2.205,2.205v445.52C487.311,1894.034,486.324,1895.021,485.106,1895.021z"/>
				<rect x="462.49" y="1426.985" style="fill:#D87355;" width="786.948" height="37.369"/>
				<rect x="552.879" y="1493.668" style="fill:#F2E6DC;" width="607.705" height="112.107"/>
				<g>
					<path style="fill:#D3BBA3;" d="M653.326,1608.108c-1.212,0-2.198-0.98-2.205-2.193l-0.586-109.429
						c-0.007-1.218,0.975-2.21,2.193-2.217c0.004,0,0.009,0,0.012,0c1.212,0,2.198,0.98,2.205,2.193l0.586,109.429
						c0.006,1.218-0.975,2.21-2.193,2.217C653.334,1608.108,653.329,1608.108,653.326,1608.108z"/>
					<path style="fill:#D3BBA3;" d="M763.271,1606.539c-1.212,0-2.198-0.98-2.205-2.193l-0.586-109.429
						c-0.006-1.218,0.975-2.21,2.193-2.217c0.004,0,0.009,0,0.012,0c1.212,0,2.198,0.98,2.205,2.193l0.586,109.429
						c0.007,1.218-0.975,2.21-2.193,2.217C763.279,1606.539,763.274,1606.539,763.271,1606.539z"/>
					<path style="fill:#D3BBA3;" d="M862.854,1603.652c-1.212,0-2.198-0.98-2.205-2.193l-0.586-109.429
						c-0.006-1.218,0.975-2.21,2.193-2.217c0.004,0,0.009,0,0.012,0c1.212,0,2.198,0.98,2.205,2.193l0.586,109.429
						c0.007,1.218-0.975,2.21-2.193,2.217C862.862,1603.652,862.857,1603.652,862.854,1603.652z"/>
					<path style="fill:#D3BBA3;" d="M958.145,1608.154c-1.212,0-2.198-0.98-2.205-2.193l-0.585-109.429
						c-0.007-1.218,0.975-2.21,2.193-2.217c0.004,0,0.009,0,0.012,0c1.212,0,2.198,0.98,2.205,2.193l0.585,109.429
						c0.006,1.218-0.975,2.21-2.193,2.217C958.152,1608.154,958.148,1608.154,958.145,1608.154z"/>
					<path style="fill:#D3BBA3;" d="M1060.679,1603.759c-1.212,0-2.198-0.979-2.205-2.193l-0.585-109.428
						c-0.006-1.218,0.975-2.21,2.193-2.217c0.004,0,0.009,0,0.012,0c1.212,0,2.198,0.98,2.205,2.193l0.585,109.428
						c0.006,1.218-0.975,2.21-2.193,2.217C1060.687,1603.759,1060.683,1603.759,1060.679,1603.759z"/>
				</g>
				<rect x="739.467" y="1642.406" style="fill:#E6D0BE;" width="243.998" height="243.998"/>
				<g>
					<rect x="627.127" y="1644.763" style="fill:#F7F1EB;" width="32.242" height="272.831"/>
					<rect x="1060.922" y="1643.141" style="fill:#F7F1EB;" width="32.242" height="272.831"/>
					<rect x="608.072" y="1634.735" style="fill:#F2E6DC;" width="504.141" height="43.966"/>
					<rect x="592.189" y="1624.821" style="fill:#FFFFFF;" width="531.959" height="35.171"/>
					<path style="fill:#363E44;" d="M1124.325,1627.024H590.759c-1.218,0-2.205-0.987-2.205-2.205c0-1.218,0.987-2.205,2.205-2.205
						h533.566c1.218,0,2.205,0.987,2.205,2.205C1126.53,1626.037,1125.543,1627.024,1124.325,1627.024z"/>
				</g>
				<path style="fill:#D3BBA3;" d="M859.747,1891.603c-1.218,0-2.205-0.987-2.205-2.205v-211.663c0-1.218,0.987-2.205,2.205-2.205
					s2.205,0.987,2.205,2.205v211.663C861.952,1890.615,860.965,1891.603,859.747,1891.603z"/>
				<g>
					<rect x="718.972" y="1874.605" style="fill:#F2E6DC;" width="284.312" height="21.494"/>
					<rect x="693.567" y="1888.283" style="fill:#F7F1EB;" width="335.117" height="21.494"/>
					<rect x="681.843" y="1903.916" style="fill:#FFFFFF;" width="362.475" height="21.494"/>
				</g>
			</g>
		</g>
		<g>
			<g>
				<g>
					<polygon style="fill:#BC8271;" points="2033.898,2074.716 2139.771,2070.28 2116.053,1934.397 2010.544,1954.976 					"/>
					<path style="fill:#D3BBA3;" d="M1889.015,2142.172h270.699l-24.926-103.482h-107.89l-74.848,23.393
						C1914.467,2072.262,1888.668,2105.04,1889.015,2142.172z"/>
				</g>
				<g>
					<polygon style="fill:#BC8271;" points="1737.761,2060.452 1840.348,2086.996 1857.17,1950.088 1750.236,1939.095 					"/>
					<path style="fill:#D3BBA3;" d="M1600.605,2142.172h270.699l-24.926-103.482h-107.89l-74.848,23.393
						C1626.057,2072.262,1600.258,2105.04,1600.605,2142.172z"/>
				</g>
				<path style="fill:#776E42;" d="M1792.652,1401.11c0,0-68.595,301.12-63.068,594.632h145.011l58.919-357.703
					c0,0,9.382,204.368,54.867,357.703h162.162c0,0-58.956-507.925-105.016-607.414L1792.652,1401.11z"/>
			</g>
			<g>
				<g>
					<g>
						<path style="fill:#BC8271;" d="M1743.506,1246.847c0,0-158.315-47.275-176.318-65.845c-1.885-1.945-5.197-5.392-10.555-8.538
							c-19.852-11.66-35.98-0.507-62.448-3.242c-30.033-3.103-45.187-21.854-50.735-16.499c-3.859,3.725-0.134,12.407,13.295,25.909
							c0,0-0.001,0.003-0.002,0.002c-11.382-9.085-27.356-20.732-32.358-14.427c-5.387,7.589,11.774,23.476,22.625,32.58
							c-13.134-11.02-23.415-12.949-25.328-8.74c-3.011,6.627,5.184,17.544,23.107,31.434c0.001,0.001,0,0.002,0,0.002
							c-15.056-6.134-19.622-5.378-20.406-1.244c-1.431,7.548,14.246,20.746,28.973,28.57c16.579,8.808,49.07,14.09,58.359,17.952
							c19.146,7.959,175.98,91.838,207.744,96.307C1756.484,1366.278,1743.506,1246.847,1743.506,1246.847z"/>
						<path style="fill:#BC8271;" d="M1521.494,1178.628c-19.101-22.971-21.122-35.305-17.385-38.215
							c6.284-4.895,27.94,7.646,60.085,37.702C1551.554,1179.281,1534.134,1177.461,1521.494,1178.628z"/>
						<path style="fill:#363E44;" d="M1546.071,1172.802c-0.087,0-0.173-0.004-0.262-0.015c-1.535-0.181-3.213-0.394-4.994-0.62
							c-8.892-1.129-21.076-2.682-30.302-1.951c-1.222,0.082-2.275-0.811-2.372-2.025c-0.095-1.214,0.812-2.276,2.025-2.372
							c9.683-0.763,21.614,0.754,31.204,1.972c1.768,0.225,3.432,0.436,4.955,0.616c1.209,0.143,2.073,1.239,1.931,2.448
							C1548.125,1171.977,1547.173,1172.802,1546.071,1172.802z"/>
						<path style="fill:#BC8271;" d="M1741.943,1360.897c59.322-22.816,112.604-152.493,112.604-152.493l-113.423-34.202
							l-89.458,156.398C1651.667,1330.6,1715.331,1371.133,1741.943,1360.897z"/>
						<path style="fill:#363E44;" d="M1545.014,1240.687c-0.87,0-1.694-0.518-2.042-1.373c-1.486-3.639-5.17-10.411-13.159-14.875
							c-7.939-4.438-15.597-4.057-19.455-3.433c-1.2,0.2-2.334-0.625-2.528-1.826c-0.194-1.201,0.623-2.334,1.826-2.528
							c4.426-0.713,13.205-1.151,22.308,3.937c9.163,5.12,13.387,12.885,15.09,17.058c0.461,1.127-0.081,2.415-1.208,2.875
							C1545.574,1240.634,1545.291,1240.687,1545.014,1240.687z"/>
						<path style="fill:#363E44;" d="M1486.391,1192.377c-0.105,0-0.211-0.008-0.318-0.023c-3.734-0.537-7.432-1.424-10.993-2.637
							c-5.163-1.757-10.087-4.208-14.634-7.286c-1.009-0.682-1.272-2.053-0.59-3.062c0.683-1.009,2.053-1.273,3.062-0.59
							c4.221,2.857,8.791,5.133,13.583,6.763c3.303,1.125,6.735,1.949,10.201,2.447c1.205,0.173,2.041,1.291,1.868,2.497
							C1488.412,1191.584,1487.469,1192.377,1486.391,1192.377z"/>
						<path style="fill:#363E44;" d="M1475.007,1209.043c-0.106,0-0.211-0.007-0.319-0.023c-3.737-0.539-7.435-1.426-10.992-2.638
							c-5.164-1.758-10.089-4.209-14.634-7.286c-1.009-0.683-1.273-2.053-0.59-3.062c0.682-1.009,2.052-1.271,3.062-0.59
							c4.22,2.857,8.79,5.132,13.583,6.763c3.301,1.124,6.733,1.948,10.202,2.448c1.205,0.174,2.041,1.292,1.867,2.498
							C1477.027,1208.252,1476.084,1209.043,1475.007,1209.043z"/>
						<path style="fill:#363E44;" d="M1474.04,1233.577c-0.106,0-0.211-0.007-0.319-0.023c-3.734-0.539-7.432-1.426-10.991-2.636
							c-5.165-1.759-10.089-4.21-14.634-7.286c-1.009-0.683-1.272-2.053-0.59-3.062c0.684-1.008,2.052-1.272,3.062-0.59
							c4.22,2.856,8.79,5.131,13.583,6.763c3.302,1.124,6.734,1.946,10.2,2.447c1.205,0.174,2.041,1.292,1.867,2.498
							C1476.061,1232.786,1475.118,1233.577,1474.04,1233.577z"/>
					</g>
					<path style="fill:#8B865C;" d="M1916.356,1090.628c-72.964-1.125-134.289,9.061-207.166,81.118
						c16.377,15.558,47.493,47.493,79.451,80.191l-19.867,206.074l305.164,0.198l-19.637-166.125
						C2054.302,1292.084,2079.281,1093.14,1916.356,1090.628z"/>
					<path style="fill:#FFFFFF;" d="M1788.45,1253.848c-1.213,0-2.199-0.981-2.205-2.194c-0.061-12.921-0.17-19.433-0.307-27.677
						c-0.066-3.948-0.137-8.244-0.211-13.779c-0.016-1.216,0.958-2.218,2.176-2.234c0.01,0,0.019,0,0.03,0
						c1.204,0,2.188,0.968,2.204,2.175c0.074,5.529,0.145,9.822,0.211,13.765c0.137,8.259,0.245,14.783,0.307,27.729
						c0.005,1.218-0.976,2.21-2.194,2.216C1788.456,1253.848,1788.453,1253.848,1788.45,1253.848z"/>
				</g>
				<g>
					<path style="fill:#BC8271;" d="M1901.361,1315.25c-0.003,0-177.909,71.295-200.268,82.642
						c-2.341,1.188-6.484,3.267-10.934,7.327c-16.491,15.042-10.786,33.176-20.909,56.904
						c-11.485,26.924-33.196,35.582-29.828,42.255c2.343,4.642,11.452,3.682,27.806-4.884c0.001-0.001,0.003,0.001,0.002,0.003
						c-11.677,7.936-27.044,19.389-22.639,25.83c5.483,7.165,25.117-4.172,36.66-11.611c-13.971,9.004-18.707,17.972-15.356,20.95
						c5.274,4.689,17.734,0.23,35.737-12.386c0,0,0.002,0,0.001,0.001c-9.997,12.184-10.607,16.63-7.003,18.541
						c6.58,3.489,21.185-7.161,32.654-18.556c12.911-12.828,18.474-27.256,21.765-36.436c0.001-0.002,3.063-9.323,3.065-9.323
						c63.277-22.221,117.412-28.845,180.723-56.685C1996.876,1391.661,1967.465,1306.289,1901.361,1315.25z"/>
					<path style="fill:#363E44;" d="M1781.051,1364.094c-0.874,0-1.701-0.523-2.047-1.383c-0.454-1.129,0.094-2.414,1.223-2.868
						c8.228-3.308,74.181-28.508,74.847-28.762c1.141-0.434,2.411,0.136,2.846,1.272c0.435,1.138-0.135,2.411-1.272,2.846
						c-0.665,0.254-66.583,25.439-74.776,28.734C1781.604,1364.043,1781.325,1364.094,1781.051,1364.094z"/>
					<path style="fill:#BC8271;" d="M1686.963,1437.636c-23.726,8.304-52.08,0.884-52.537-10.737
						c-0.303-7.717,39.704-13.609,61.962-26.381C1689.61,1410.79,1693.74,1427.365,1686.963,1437.636z"/>
					<path style="fill:#363E44;" d="M1667.242,1500.857c-0.646,0-1.286-0.282-1.721-0.826c-0.761-0.951-0.608-2.338,0.341-3.099
						c3.851-3.086,7.265-6.661,10.147-10.628c1.986-2.734,3.73-5.672,5.185-8.734c0.523-1.1,1.836-1.568,2.938-1.045
						c1.099,0.522,1.567,1.838,1.045,2.938c-1.571,3.306-3.455,6.48-5.6,9.434c-3.114,4.285-6.8,8.145-10.956,11.476
						C1668.213,1500.698,1667.725,1500.857,1667.242,1500.857z"/>
					<path style="fill:#363E44;" d="M1679.411,1516.178c-0.646,0-1.286-0.282-1.722-0.826c-0.761-0.951-0.608-2.338,0.341-3.099
						c3.851-3.085,7.265-6.661,10.147-10.628c1.986-2.733,3.73-5.672,5.185-8.734c0.522-1.1,1.835-1.57,2.938-1.045
						c1.099,0.522,1.568,1.838,1.045,2.938c-1.571,3.306-3.455,6.48-5.6,9.434c-3.113,4.285-6.8,8.146-10.956,11.476
						C1680.382,1516.02,1679.895,1516.178,1679.411,1516.178z"/>
					<path style="fill:#363E44;" d="M1701.855,1524.107c-0.646,0-1.286-0.283-1.721-0.827c-0.762-0.95-0.608-2.337,0.342-3.098
						c3.849-3.084,7.263-6.66,10.145-10.628c1.986-2.732,3.731-5.67,5.185-8.733c0.521-1.1,1.839-1.572,2.937-1.046
						c1.1,0.522,1.569,1.837,1.047,2.937c-1.57,3.308-3.455,6.483-5.6,9.435c-3.113,4.286-6.8,8.147-10.956,11.476
						C1702.827,1523.949,1702.339,1524.107,1701.855,1524.107z"/>
				</g>
				<polygon style="fill:#BC8271;" points="1913.823,1248.527 1877.854,1326.221 1958.425,1396.72 2031.802,1284.496 				"/>
				<polygon style="fill:#8B865C;" points="1933.966,1176.589 1900.874,1260.037 2021.731,1303.2 2050.506,1252.843 				"/>
				<path style="fill:#FFFFFF;" d="M2021.731,1305.405c-0.247,0-0.497-0.041-0.742-0.128l-120.857-43.163
					c-0.557-0.199-1.011-0.614-1.26-1.151c-0.248-0.536-0.27-1.151-0.061-1.704l28.776-76.255c0.43-1.141,1.706-1.715,2.841-1.284
					c1.139,0.43,1.714,1.702,1.284,2.841l-27.983,74.155l116.85,41.731l22.892-49.252c0.514-1.106,1.824-1.585,2.928-1.07
					c1.104,0.513,1.584,1.825,1.07,2.928l-23.74,51.076C2023.36,1304.927,2022.566,1305.405,2021.731,1305.405z"/>
			</g>
			<g>
				<path style="fill:#BC8271;" d="M1915.922,1125.481l-0.019,0.001c-15.87,1.057-29.61-10.911-30.741-26.776l-4.543-63.776
					c-1.134-15.916,10.848-29.737,26.764-30.873c15.915-1.136,29.738,10.844,30.876,26.758l4.563,63.774
					C1943.964,1110.561,1931.9,1124.416,1915.922,1125.481z"/>
				<path style="fill:#BC8271;" d="M1937.776,960.128c-2.01-1.206-21.435-12.465-40.178-4.431
					c-13.946,5.978-21.307,18.661-30.435,41.8c-10.751,27.249-13.37,45.04-8.248,53.861c8.093,13.938,52.819,12.623,77.301-3.995
					c17.671-11.996,26.741-33.952,24.241-55.315C1957.964,970.745,1939.06,960.897,1937.776,960.128z"/>
				<path style="fill:#363E44;" d="M1887.549,1063.112c-1.471,0-2.924-0.036-4.358-0.11c-1.215-0.063-2.151-1.098-2.089-2.315
					c0.063-1.216,1.123-2.149,2.315-2.089c11.979,0.616,25.51-1.497,37.112-5.793c1.139-0.419,2.411,0.161,2.834,1.303
					c0.422,1.142-0.161,2.41-1.303,2.833C1911.305,1060.924,1898.959,1063.112,1887.549,1063.112z"/>
				<g>
					<path style="fill:#FFFFFF;" d="M1918.677,1006.648c0,0-5.786,5.386-13.898,7.495c-1.707,0.444-3.516,0.742-5.397,0.815
						c-10.818,0.419-11.403-14.683-0.585-15.102c2.691-0.104,5.273,0.264,7.635,0.875c0.471,0.122,0.934,0.254,1.387,0.394
						c0.489,0.151,0.966,0.311,1.431,0.478C1914.872,1003.619,1918.677,1006.648,1918.677,1006.648z"/>
					<path style="fill:#363E44;" d="M1879.501,1008.165c0,0,8.477-7.89,19.296-8.31c2.698-0.105,5.287,0.266,7.653,0.88
						c1.511,3.888,1.306,8.401-0.963,12.281c-0.228,0.39-0.475,0.76-0.733,1.12c-1.702,0.441-3.498,0.748-5.372,0.821
						C1888.564,1015.377,1879.501,1008.165,1879.501,1008.165z"/>
				</g>
				<path style="fill:#363E44;" d="M1864.491,1017.874c-0.989,0-1.889-0.671-2.138-1.674c-0.73-2.944-0.416-5.188,0.934-6.667
					c1.05-1.145,2.308-1.391,3.319-1.587c0.579-0.113,1.126-0.22,1.742-0.483c1.107-0.475,2.086-1.318,2.912-2.506
					c0.697-0.998,2.068-1.245,3.069-0.552c0.999,0.694,1.247,2.069,0.552,3.069c-1.305,1.878-2.919,3.237-4.796,4.042
					c-1.049,0.45-1.967,0.629-2.637,0.759c-0.319,0.062-0.801,0.156-0.899,0.226c-0.129,0.141-0.354,0.877,0.083,2.639
					c0.293,1.182-0.427,2.378-1.609,2.671C1864.845,1017.854,1864.668,1017.874,1864.491,1017.874z"/>
				<path style="fill:#363E44;" d="M1873.722,1042.744c-0.955,0-1.834-0.625-2.115-1.589c-0.341-1.168,0.33-2.392,1.5-2.733
					c1.246-0.364,2.989-1.152,4.215-2.848c0.913-1.261,1.375-2.756,1.521-3.798c-1.396,0.781-3.472,1.826-6.232,1.738
					c-2.271-0.082-4.547-0.696-6.585-1.775c-1.075-0.571-1.486-1.904-0.916-2.981c0.568-1.077,1.901-1.489,2.981-0.916
					c1.453,0.77,3.07,1.208,4.678,1.265c1.736,0.073,3.009-0.666,4.151-1.307c1.261-0.709,2.992-1.679,4.716-0.493
					c0.575,0.394,1.314,1.177,1.572,2.665c0.411,2.373-0.54,5.741-2.313,8.189c-1.959,2.706-4.644,3.938-6.553,4.495
					C1874.134,1042.715,1873.926,1042.744,1873.722,1042.744z"/>
				<g>
					
						<ellipse transform="matrix(0.8596 -0.511 0.511 0.8596 -252.5439 1136.7605)" style="fill:#BC8271;" cx="1942.289" cy="1027.934" rx="17.866" ry="15.536"/>
					<path style="fill:#363E44;" d="M1939.172,1046.288c-0.042,0-0.085-0.001-0.127-0.003c-6.049-0.344-11.154-3.294-14.008-8.096
						c-0.621-1.046-0.278-2.4,0.77-3.022c1.046-0.622,2.398-0.279,3.022,0.77c2.091,3.519,5.906,5.687,10.466,5.945
						c1.215,0.069,2.146,1.111,2.077,2.326C1941.304,1045.382,1940.332,1046.288,1939.172,1046.288z"/>
					<path style="fill:#363E44;" d="M1956.872,1019.842c-0.674,0-1.339-0.308-1.772-0.89c-4.086-5.5-12.705-6.589-19.622-2.477
						c-1.052,0.621-2.4,0.279-3.022-0.768c-0.622-1.047-0.279-2.4,0.768-3.022c8.985-5.341,19.91-3.778,25.416,3.638
						c0.727,0.977,0.522,2.359-0.455,3.084C1957.789,1019.701,1957.328,1019.842,1956.872,1019.842z"/>
					<path style="fill:#363E44;" d="M1947.156,1035.661c-0.752,0-1.486-0.384-1.897-1.079c-0.622-1.046-0.279-2.4,0.769-3.021
						c2.786-1.657,3.948-4.865,2.588-7.153c-0.786-1.322-2.321-2.111-4.107-2.111c-0.008,0-0.016-0.001-0.025,0
						c-1.214,0-2.202-0.983-2.205-2.198c-0.003-1.218,0.981-2.208,2.198-2.211c0.011,0,0.021,0,0.032,0
						c3.356,0,6.305,1.593,7.897,4.268c2.602,4.378,0.75,10.297-4.127,13.196
						C1947.927,1035.561,1947.539,1035.661,1947.156,1035.661z"/>
				</g>
				<g>
					<path style="fill:#84524D;" d="M1938.129,992.57c-21.781-22.76-48.22-23.594-55.87-24.724
						c-4.238-10.222-2.276-16.953-1.382-19.354c5.106-13.727,26.518-23.77,51.358-18.179c-1.943,0.234-11.198,4.009-12.511,6.705
						c9.004-4.462,16.519-3.491,20.322-3.042c17.437,2.059,32.432,18.031,37.327,41.336c-0.661-1.377-4.632-7.258-9.055-9.193
						c2.399,2.875,4.791,6.377,6.774,10.576c8.626,18.264,3.365,36.682,1.175,43.133
						C1973.438,1015.111,1961.823,996.27,1938.129,992.57z"/>
					<path style="fill:#363E44;" d="M1906.821,972.181c-0.632,0-1.247-0.272-1.672-0.768c-0.564-0.656-0.692-1.581-0.327-2.366
						c1.559-3.355,4.603-8.095,10.256-11.622c5.174-3.23,10.293-4.015,13.676-4.104c1.223-0.107,2.231,0.928,2.262,2.146
						c0.032,1.216-0.928,2.23-2.146,2.262c-2.836,0.075-7.125,0.733-11.458,3.436c-2.558,1.598-4.473,3.515-5.875,5.315
						c3.98-0.896,8.02-1.514,12.069-1.843c4.696-0.385,9.469-0.385,14.182,0c1.214,0.099,2.118,1.163,2.019,2.376
						c-0.098,1.214-1.176,2.121-2.376,2.019c-4.478-0.364-9.008-0.364-13.466,0c-5.574,0.454-11.134,1.484-16.525,3.061
						C1907.235,972.152,1907.027,972.181,1906.821,972.181z"/>
				</g>
			</g>
		</g>
		<g>
			<g>
				<g>
					<polygon style="fill:#84524D;" points="1322.558,2052.23 1425.11,2031.907 1380.556,1901.364 1280.903,1937.565 					"/>
					<path style="fill:#8B865C;" d="M1203.45,2161.008l261.058-71.6l-51.409-93.204l-102.273,28.05l-67.769,42.844
						C1209.504,2086.856,1193.294,2125.29,1203.45,2161.008z"/>
				</g>
				<g>
					<polygon style="fill:#84524D;" points="1532.204,2070.839 1637.977,2077.228 1628.247,1939.635 1521.189,1949.341 					"/>
					<path style="fill:#9E9569;" d="M1389.691,2142.967l270.699,0l-24.926-103.482h-106.05l-76.688,23.393
						C1415.142,2073.057,1389.344,2105.835,1389.691,2142.967z"/>
				</g>
				<g>
					<path style="fill:#D87355;" d="M1569.736,1313.358c11.172,29.364,19.273,62.736,29.936,98.125
						c56.511,187.549,48.507,584.492,48.507,584.492l-139.729-3.498c0,0-52.113-262.713-75.25-433.087
						c-18.931,45.223-54.688,151.444-54.688,151.444s23.137,171.426,34.706,225.063c-46.275,17.879-92.023,27.344-148.815,43.12
						c-68.01-227.867-82.543-259.658-54.162-346.008c36.563-111.242,128.983-312.919,159.921-356.238
						C1436.685,1288.965,1503.211,1301.162,1569.736,1313.358z"/>
				</g>
			</g>
			<g>
				
					<rect x="1153.793" y="1787.209" transform="matrix(-1 -1.224647e-16 1.224647e-16 -1 2615.458 3588.9153)" style="fill:#EFBC73;" width="307.872" height="14.498"/>
				
					<rect x="1202.404" y="1562.914" transform="matrix(-1 -1.224647e-16 1.224647e-16 -1 2653.8352 3141.1792)" style="fill:#EFBC73;" width="249.027" height="15.351"/>
				<path style="fill:#EFBC73;" d="M1241.869,1479.488l173.851,0.097c26.822,0.015,48.89,21.119,50.103,47.913l28.708,634.103
					h-30.73l-28.012-621.789c-0.767-17.025-14.793-30.433-31.835-30.433h-152.601c-18.211,0-33.84,12.969-37.198,30.868
					l-114.489,610.197l-30.174-5.43l115.539-618.35C1190.142,1499.302,1214.034,1479.473,1241.869,1479.488z"/>
				<path style="fill:#363E44;" d="M1503.446,2163.806H1468.3l-28.106-623.895c-0.716-15.885-13.733-28.328-29.633-28.328H1257.96
					c-17.138,0-31.871,12.226-35.032,29.071l-114.893,612.348l-34.513-6.212l0.408-2.181l115.539-618.349
					c5.303-28.383,30.105-48.976,58.976-48.976c0.012,0,0.021,0,0.032,0l173.85,0.098c28.061,0.015,51.036,21.985,52.305,50.017
					L1503.446,2163.806z M1472.516,2159.397h26.316l-28.603-631.799c-1.163-25.673-22.203-45.794-47.902-45.807l-173.85-0.098
					c-0.01,0-0.021,0-0.03,0c-26.751,0-49.728,19.079-54.641,45.376l-115.131,616.168l25.835,4.649l114.085-608.046
					c3.553-18.928,20.108-32.667,39.366-32.667h152.601c18.264,0,33.215,14.293,34.038,32.539L1472.516,2159.397z"/>
				<circle style="fill:#8B865C;" cx="1090.554" cy="2125.357" r="33.687"/>
				<path style="fill:#FFFFFF;" d="M1089.701,2145.898c-11.796,0-21.394-9.598-21.394-21.394c0-11.796,9.598-21.394,21.394-21.394
					s21.394,9.598,21.394,21.394C1111.094,2136.3,1101.497,2145.898,1089.701,2145.898z M1089.701,2107.52
					c-9.365,0-16.984,7.619-16.984,16.984c0,9.365,7.619,16.984,16.984,16.984s16.984-7.619,16.984-16.984
					C1106.685,2115.139,1099.066,2107.52,1089.701,2107.52z"/>
			</g>
			<g>
				<g>
					<path style="fill:#EFBC73;" d="M1595.204,1180.077c-7.119-25.31-35.875-108.457-138.245-115.981
						c-0.73-0.054-1.454-0.107-2.172-0.159c-76.615-5.59-123.762,51.298-130.588,127.813c-3.991,44.733-5.842,97.912-7.54,130.068
						c62.487,9.465,294.036,33.639,294.036,33.639S1614.135,1247.386,1595.204,1180.077z"/>
				</g>
				<path style="fill:#84524D;" d="M1453.324,1222.383c-4.356,183.364,60.411,151.244,89.539,146.562
					c23.481-3.774,30.149-89.632,21.082-162.13L1453.324,1222.383z"/>
				<path style="fill:#363E44;" d="M1448.745,1226.284c-0.49,0-0.969-0.164-1.36-0.469c-0.477-0.373-0.78-0.927-0.836-1.531
					l-7.451-79.446c-0.114-1.212,0.777-2.287,1.99-2.401c1.206-0.115,2.288,0.777,2.401,1.99l7.234,77.126l118.829-17.808
					l-20.826-83.087c-0.296-1.181,0.422-2.379,1.603-2.675c1.178-0.287,2.378,0.422,2.675,1.603l21.416,85.443
					c0.151,0.603,0.04,1.242-0.305,1.759c-0.346,0.518-0.892,0.866-1.507,0.957l-123.536,18.513
					C1448.962,1226.276,1448.854,1226.284,1448.745,1226.284z"/>
				<g>
					<g>
						<path style="fill:#84524D;" d="M1483.155,1293.315c-0.002,0.002-124.031,124.277-138.757,141.905
							c-1.542,1.846-4.279,5.092-6.559,10.117c-8.451,18.619,2.901,31.826,2.949,55.458c0.054,26.815-15.097,41.945-9.851,46.347
							c3.649,3.062,10.971-1.036,21.646-14.154c0.001-0.001,0.003,0,0.002,0.001c-6.965,10.898-15.765,26.091-9.731,29.923
							c7.204,4.051,19.639-12.584,26.67-23.015c-8.51,12.626-9.258,21.886-5.362,23.184c6.134,2.043,15.013-6.211,25.613-23.335
							c0,0,0.002,0,0.001,0c-4.016,13.868-2.924,17.831,0.8,18.139c6.8,0.561,15.25-13.681,20.789-27.416
							c6.237-15.463,5.71-29.618,5.165-38.536c0-0.002-0.789-8.955-0.787-8.956c45.247-41.561,86.701-67.259,129.946-113.562
							C1589.434,1322.579,1535.572,1261.897,1483.155,1293.315z"/>
						<path style="fill:#363E44;" d="M1398.71,1378.236c-0.563,0-1.125-0.214-1.556-0.643c-0.863-0.859-0.866-2.255-0.007-3.118
							c5.734-5.759,52.159-50.794,52.627-51.248c0.874-0.847,2.268-0.828,3.118,0.047c0.848,0.874,0.827,2.271-0.047,3.118
							c-0.468,0.454-46.866,45.463-52.573,51.194C1399.842,1378.02,1399.276,1378.236,1398.71,1378.236z"/>
						<path style="fill:#84524D;" d="M1346.856,1473.784c-14.017,6.063-14.802,8.419-49.518,6.22
							c-7.061-0.447,29.921-22.082,44.047-40.873C1339.388,1450.226,1348.853,1462.689,1346.856,1473.784z"/>
						<path style="fill:#363E44;" d="M1352.286,1534.48c-0.35,0-0.705-0.083-1.036-0.26c-1.074-0.573-1.48-1.909-0.907-2.983
							c2.12-3.974,3.697-8.201,4.686-12.566c0.682-3.004,1.087-6.097,1.206-9.192c0.047-1.216,1.076-2.141,2.288-2.12
							c1.218,0.047,2.166,1.071,2.12,2.288c-0.129,3.368-0.571,6.732-1.313,10c-1.076,4.746-2.791,9.344-5.095,13.665
							C1353.836,1534.057,1353.074,1534.48,1352.286,1534.48z"/>
						<path style="fill:#363E44;" d="M1368.066,1542.984c-0.35,0-0.705-0.083-1.036-0.26c-1.074-0.573-1.48-1.908-0.907-2.983
							c2.12-3.975,3.696-8.203,4.686-12.565c0.682-3.009,1.088-6.102,1.206-9.192c0.047-1.216,1.078-2.151,2.288-2.12
							c1.218,0.047,2.166,1.071,2.12,2.288c-0.129,3.361-0.57,6.725-1.313,9.999c-1.077,4.745-2.791,9.343-5.095,13.665
							C1369.617,1542.561,1368.854,1542.984,1368.066,1542.984z"/>
						<path style="fill:#363E44;" d="M1389.825,1541.554c-0.35,0-0.705-0.083-1.036-0.259c-1.074-0.573-1.48-1.908-0.908-2.983
							c2.12-3.976,3.696-8.203,4.686-12.566c0.682-3.011,1.088-6.103,1.205-9.192c0.045-1.217,1.044-2.166,2.288-2.12
							c1.217,0.046,2.165,1.07,2.12,2.288c-0.128,3.359-0.57,6.723-1.312,9.999c-1.077,4.745-2.79,9.344-5.095,13.666
							C1391.376,1541.131,1390.613,1541.554,1389.825,1541.554z"/>
					</g>
				</g>
				<path style="fill:#363E44;" d="M1316.661,1324.023c-0.033,0-0.066-0.001-0.099-0.002c-1.216-0.054-2.16-1.083-2.106-2.3
					c0.426-9.689,0.807-19.483,1.188-29.276c1.121-28.844,2.279-58.669,4.665-85.225c0.109-1.211,1.18-2.105,2.393-1.999
					c1.213,0.109,2.108,1.181,1.999,2.393c-2.376,26.444-3.532,56.213-4.651,85.002c-0.381,9.801-0.761,19.602-1.189,29.299
					C1318.81,1323.099,1317.834,1324.023,1316.661,1324.023z"/>
			</g>
			<g>
				<path style="fill:#84524D;" d="M1416.376,1042.103c13.352,9.483,51.072-16.262,51.072-16.262l21.581-45.141
					c0-23.039-18.677-41.717-41.717-41.717c-23.039,0-41.717,18.677-41.717,41.717
					C1405.595,980.7,1402.776,1032.445,1416.376,1042.103z"/>
				<path style="fill:#84524D;" d="M1408.037,993.726c-0.867-0.04-0.751,2.306-4.3,6.699c-1.744,2.159-2.803,4.224-2.817,5.557
					c-0.028,2.747,5.047,6.135,7.511,4.942C1412.568,1008.919,1409.728,993.805,1408.037,993.726z"/>
				<path style="fill:#84524D;" d="M1418.444,1082.369c-1.513,10.833,18.681,22.606,45.104,26.296
					c26.423,3.689,49.069-2.102,50.582-12.936s-17.558-27.824-43.981-31.514c-14.405-2.011-29.907,1.244-37.71,4.997
					C1424.815,1072.878,1419.132,1077.441,1418.444,1082.369z"/>
				
					<rect x="1437.425" y="979.881" transform="matrix(-1 -1.224647e-16 1.224647e-16 -1 2926.4094 2065.2268)" style="fill:#84524D;" width="51.56" height="105.465"/>
				<path style="fill:#363E44;" d="M1437.796,1043.549c-0.906,0-1.756-0.564-2.077-1.466c-0.409-1.148,0.191-2.408,1.337-2.816
					c14.051-5.001,28.999-15.145,29.148-15.248c1.008-0.688,2.376-0.426,3.064,0.579c0.686,1.005,0.427,2.377-0.578,3.064
					c-0.629,0.429-15.557,10.563-30.155,15.758C1438.291,1043.507,1438.042,1043.549,1437.796,1043.549z"/>
				<g>
					<path style="fill:#FFFFFF;" d="M1452.177,986.974c0,0-7.654-4.117-16.881-4.116c-1.963,0,1.74,15.709,3.604,14.82
						C1447.093,993.767,1452.177,986.974,1452.177,986.974z"/>
					<path style="fill:#363E44;" d="M1429.252,983.497c-11.669,2.577-19.328,12.811-19.328,12.811s11.257,6.055,22.925,3.478
						c2.166-0.479,4.191-1.222,6.057-2.114c1.4-5.076,0.188-10.707-3.625-14.802
						C1433.321,982.871,1431.295,983.046,1429.252,983.497z"/>
				</g>
				<g>
					<path style="fill:#363E44;" d="M1417.117,949.142c-1.422-6.377,12.883-18.186,28.922-19.982
						c19.651-2.201,42.741,4.089,55.258,26.205c12.025,21.246,5.722,50.917-12.303,69.565c-5.291-4.174-7.493-5.85-13.99-11.021
						c10.953-11.022,11.093-22.746,7.362-26.643c-3.178-3.319-11.112-3.976-19.632,0.701c-2.366-6.222-6.31-15.425-17.879-23.838
						C1431.472,954.396,1418.219,954.085,1417.117,949.142z"/>
					<path style="fill:#363E44;" d="M1622.896,1177.825c0.974-9.651,1.25-21.622-0.562-35.165
						c-2.1-15.691-6.334-28.527-10.209-37.859c5.979,9.544,13.263,23.421,18.292,41.262c3.329,11.81,4.892,22.611,5.548,31.761
						c20.506,0,41.013,0,61.52,0c-28.926-198.509-212.599-219.784-216.091-212.688c-3.883,7.89,114.568,50.477,112.298,212.688
						C1603.426,1177.825,1613.161,1177.825,1622.896,1177.825z"/>
				</g>
				<path style="fill:#363E44;" d="M1422.59,1023.714c-2.222,0-4.469-1.083-5.934-3.018c-0.735-0.97-0.544-2.353,0.427-3.089
					c0.97-0.737,2.353-0.544,3.089,0.427c0.825,1.087,2.232,1.56,3.276,1.095c1.109-0.493,1.397-1.942,1.399-1.957
					c0.227-1.195,1.373-1.972,2.58-1.753c1.196,0.228,1.981,1.383,1.753,2.579c-0.118,0.621-0.867,3.794-3.939,5.16
					C1424.397,1023.534,1423.495,1023.714,1422.59,1023.714z"/>
			</g>
		</g>
	</g>
</g>
</svg>
