<?xml version="1.0" encoding="utf-8"?>
<!-- Generator: Adobe Illustrator 27.5.0, SVG Export Plug-In . SVG Version: 6.00 Build 0)  -->
<svg version="1.1" xmlns="http://www.w3.org/2000/svg" xmlns:xlink="http://www.w3.org/1999/xlink" x="0px" y="0px"
	 viewBox="0 0 500 500" style="enable-background:new 0 0 500 500;" xml:space="preserve">
<g id="BACKGROUND">
	<rect x="-0.005" y="0.005" style="fill:#FEF2D9;" width="500.009" height="499.99"/>
</g>
<g id="OBJECTS">
	<g>
		<g>
			<defs>
				<rect id="SVGID_1_" x="-0.005" y="0.005" width="500.009" height="499.99"/>
			</defs>
			<clipPath id="SVGID_00000093139150007309436400000014038542099386670778_">
				<use xlink:href="#SVGID_1_"  style="overflow:visible;"/>
			</clipPath>
			<g style="clip-path:url(#SVGID_00000093139150007309436400000014038542099386670778_);">
				<g>
					<path style="fill:#EB6A33;" d="M321.003,450.176c0,0.021-0.004,0.038-0.004,0.055c-0.042,0.694-0.157,1.408-0.351,2.148
						c-0.068,0.258-0.14,0.507-0.224,0.744c-0.013,0.042-0.03,0.085-0.047,0.127c-0.778,2.182-2.182,3.666-3.945,4.597
						c-2.097,1.116-4.698,1.446-7.345,1.235c-0.837-0.262-1.67-0.524-2.495-0.787c-18.378-5.789-34.244-11.113-51.591-20.133
						c-3.827-1.992-7.629-4.06-11.418-6.161c-0.224-0.127-0.444-0.25-0.668-0.376c-0.296-0.161-0.592-0.326-0.888-0.491
						c-13.168-7.345-26.197-15.021-39.687-21.161c0.288,0.389,0.588,0.77,0.905,1.142c5.633,6.694,15.426,11.037,24.852,15.266
						c4.068,1.823,8.069,3.624,11.638,5.582c0.199,0.11,0.393,0.22,0.588,0.33c0.3,0.165,0.596,0.338,0.888,0.507
						c0.736,0.427,1.451,0.867,2.14,1.315c10.8,5.616,22.446,12.166,32.655,18.302c13.308,7.997,25.698,15.321,38.841,23.119
						c-4.664,0.254-9.223-0.258-12.767-0.144c-1.446,0.047-2.719,0.195-3.764,0.546c-1.518,0.503-2.554,1.429-2.909,3.062
						c-0.224,0.99-0.194,2.245,0.135,3.831c0.279,1.4,0.795,3.057,1.569,5.02c0.008,0.021,0.017,0.047,0.025,0.068
						c0.114,0.288,0.233,0.584,0.359,0.884c-29.487-5.971-55.008-23.25-80.334-37.56c-0.017-0.004-0.03-0.013-0.042-0.021
						c-3.159-1.785-22.019-9.384-12.196-3.747c8.458,4.859,16.721,10.09,24.979,15.169c6.309,3.214,50.043,22.611,51.815,27.356
						c-3.032,0.055-5.523,0.216-7.544,0.457c-3.84,0.465-6.013,1.231-7.075,2.178c-0.85,0.749-0.989,1.615-0.711,2.529
						c0.503,1.624,2.343,3.4,3.895,4.952c0.592,0.592,1.146,1.15,1.56,1.653c0.795,0.96,1.112,1.725,0.343,2.161
						c-0.127,0.076-0.287,0.14-0.478,0.19c-0.782,0.224-2.123,0.279-4.216,0.123c-0.076-0.021-0.156-0.047-0.233-0.068
						c-13.063-3.776-25.521-9.126-37.657-15.16c-0.165-0.085-0.338-0.169-0.508-0.254c-0.359-0.173-0.715-0.355-1.074-0.537
						c-0.443-0.224-0.903-0.457-1.38-0.702c-4.195-2.128-8.355-4.326-12.486-6.563c-5.087-2.757-10.141-5.565-15.173-8.365
						c-0.461-0.258-0.93-0.516-1.408-0.778c-0.727-0.406-1.455-0.808-2.182-1.209c-0.66-0.368-1.294-0.719-1.899-1.053
						c-4.136-2.284-8.263-4.537-12.403-6.732c-12.42-6.58-24.903-12.568-37.78-16.923c0.638,0.3,1.273,0.596,1.907,0.85
						c1.637,0.804,3.218,1.645,4.749,2.516c15.114,8.593,25.483,20.26,39.459,30.713c7.417,5.108,11.951,5.493,10.792,11.155
						c-0.017,0.097-0.042,0.199-0.068,0.3c-0.182,0.795-0.469,1.687-0.875,2.706c-0.089,0.228-0.186,0.461-0.288,0.702
						c-0.406,0.964-0.901,2.03-1.497,3.222c-1.417,2.546-2.677,2.182-5.079,0.935c-38.668-22.746-68.51-44.981-100.699-75.906
						c-6.99-13.82-21.123-26.417-25.258-41.505c-11.895-31.297-26.76-45.506-42.271-72.612
						c-19.879-30.916-34.633-40.702-29.432-51.21c2.706-5.476,10.838-11.147,26.485-20.116c6.174-2.931,36.033-24.062,40.698-20.784
						c12.597,17.934,19.444,39.543,29.081,59.063c1.992,3.256,4.093,6.119,6.288,8.639c18.471,21.228,43.835,18.467,71.077,23.867
						c3.751,1.197,7.223,2.533,10.517,3.971c12.221,5.332,21.998,12.098,34.502,18.712c10.301,3.912,18.628,11.303,26.827,18.543
						c3.417,1.734,4.774,3.624,5.332,5.493c0.989,3.303-0.512,6.533,2.52,8.703c0.279,0.203,0.596,0.393,0.96,0.575
						c0.867,0.431,1.654,0.846,2.364,1.243c18.941,10.525-14.695,8.132-21.973,3.594c-14.09-7.878-28.096-13.464-38.706-24.112
						c-0.486-0.486-0.96-0.981-1.429-1.489c-3.307-3.569-6.246-7.696-8.711-12.623c8.318,31.318,30.971,51.489,57.608,67.965
						c9.916,6.14,20.382,11.769,30.87,17.266c1.463,0.77,2.922,1.535,4.385,2.296c0.047,0.025,0.089,0.046,0.135,0.072
						c6.897,3.599,13.769,7.172,20.463,10.821c6.301,3.438,12.445,6.944,18.302,10.61c0.867,0.19,1.691,0.448,2.461,0.774
						c1.036,0.436,1.975,0.994,2.787,1.653c0.165,0.131,0.321,0.266,0.473,0.41c1.142,1.045,1.996,2.313,2.482,3.764
						C320.914,447.749,321.075,448.924,321.003,450.176z"/>
					<g>
						<path style="fill:#C1572A;" d="M106.776,295.654c0.265,0.262,0.477,0.477,0.733,0.721c20.34,11.43,44.97,8.292,66.571,15.966
							c3.864,2.735,9.49,5.828,3.293-1.969c-9.378-4.835-19.936-6.286-29.557-10.405c-8.686-0.284-16.821-0.696-25.101-3.827
							c-10.867-4.11-19.012-10.25-26.733-19.929c-6.05-7.583-12.217-18.33-15.849-28.019
							C85.354,265.868,93.502,282.512,106.776,295.654z"/>
						<path style="fill:#C1572A;" d="M-15.352,258.789c4.929,8.787,9.635,17.642,14.169,26.639
							c8.318,17.303,17.844,33.783,28.53,49.74c3.6,3.858,6.683,8.296,9.821,12.633c-0.855-1.08-1.701-2.168-2.524-3.274
							c3.82,7.552,9.448,13.307,14.656,19.874c-1.382-2.51-2.973-4.865-4.664-7.148c9.56,11.352,15.748,24.987,22.3,38.011
							c6.054,12.016,11.449,20.608,21.066,31.548c3.756,4.273,13.631,13.18,19.54,17.942c22.918,18.467,48.335,38.086,73.948,51.194
							c5.697,2.916,4.105,2.027,7.345,3.172c5.9,2.085,8.677,3.258,13.636,4.935c3.63,1.227,5.746,1.142,9.477,0.185
							c5.415-1.389,3.226-8.368,1.094-12.075c-2.944-6.413-25.285-16.922-32.123-21.912c-1.484-1.083-3.736-2.723-5.268-3.931
							c-5.876-7.391-30.36-20.2-39.691-23.212c9.803,5.238,12.746,6.07,23.182,13.88c9.083,6.797,22.178,22.057,33.798,27.226
							c4.782,2.128,5.701,2.47,6.706,6.872c2.995,2.177,6.754,2.933,9.832,5.212c1.178,0.872,2.625,1.968,1.918,3.665
							c-0.563,1.351-2.127,1.126-3.377,1.012c-5.417-0.494-7.278-3.615-9.419-8.264c-2.382,1.641-2.249,4.032-2.519,6.963
							c-14.042-7.756-0.148-3.072-19.312-12.048c-20.091-9.411-52.187-38.033-70.712-53.122
							c-11.072-9.018-17.887-19.114-22.415-25.919c-6.183-9.292-6.28-9.813-9.583-15.698c-5.145-9.169-8.317-15.657-11.414-24.4
							c-3.676-10.378-6.941-19.34-13.758-27.968c-6.817-8.628-14.151-17.052-19.852-26.655
							c-5.782-9.737-11.508-19.638-17.711-29.139c-3.113-4.768-5.252-9.257-8.032-14.509c-2.335-4.411-5.973-9.718-9.459-13.471
							c-0.877-0.944-0.735-1.538-1.257-2.52C-10.681,254.951-13.192,256.181-15.352,258.789z"/>
						<path style="fill:#C1572A;" d="M319.451,478.995c-0.3-0.994-0.782-1.869-1.366-2.668c-1.019-1.383-2.355-2.533-3.658-3.654
							c-6.132-5.29-15.059-8.542-21.49-11.802c-13.727-6.948-24.628-14.171-38.131-21.575c0.398,0.178,0.795,0.359,1.193,0.537
							c16.995,7.65,32.756,14.116,51.049,18.628l-0.457-0.165c-18.738-6.673-35.162-14.902-53.156-23.478
							c-2.508-1.192-4.986-2.406-7.438-3.632c-0.182-0.089-0.359-0.178-0.537-0.271c-0.419-0.207-0.837-0.414-1.256-0.626
							c-13.371-6.741-26.13-13.946-39.298-21.516c-2.047-0.744-8.056-2.812-6.182,1.332c1.611,0.152,3.108,0.503,4.521,1.011
							c3.163,1.138,5.92,3.045,8.694,5.206c5.189,3.721,10.601,7.02,16.158,10.06c3.675,2.009,7.417,3.907,11.202,5.738
							c0.195,0.093,0.389,0.186,0.584,0.283c0.343,0.165,0.689,0.33,1.036,0.495c0.351,0.169,0.706,0.338,1.062,0.507
							c12.035,7.468,24.531,15.16,36.465,22.328c11.76,7.066,22.768,13.033,34.934,18.991c-2.347,0.063-4.339-0.461-6.648-0.634
							c-3.425-0.258-6.254-1.489-9.324,0.664c0.127,0.296,0.275,0.537,0.444,0.744c0.14,0.173,0.296,0.317,0.465,0.44
							c0.947,0.689,2.262,0.651,3.485,0.867c3.417,0.613,6.635,1.226,9.857,2.305c0.495,0.165,0.998,0.347,1.472,0.562
							c0.909,0.41,1.721,0.93,2.22,1.645c0.457,0.66,0.651,1.484,0.402,2.546c-0.655,2.812-2.829,2.926-5.607,2.719
							c-1.281-0.093-2.486-0.203-3.611-0.355c-1.028-0.14-1.992-0.309-2.897-0.537c-3.654-0.905-6.339-2.698-8.229-6.69
							c-0.203-0.419-0.393-0.863-0.575-1.336c-0.165-0.427-0.326-0.884-0.478-1.357c-4.711,5.671-2.69,7.946,2.757,11.544
							c0.051,0.034,0.106,0.072,0.161,0.106c-0.042-0.013-0.089-0.025-0.135-0.038c-14.17-3.924-53.464-23.525-79.974-36.676
							c-0.017-0.004-0.03-0.013-0.042-0.021c-3.59-1.78-6.944-3.442-9.967-4.927c-5.527-2.719-9.95-4.859-12.707-6.085
							c-4.783-2.127-13.177-5.134-20.116-7.273c-0.004,0-0.013-0.004-0.021-0.004c-1.941-0.6-3.772-1.129-5.37-1.556
							c1.027,0.6,2.774,1.679,4.085,2.114c9.917,3.328,20.624,8.728,29.018,13.866c0.508,0.309,0.998,0.613,1.472,0.905
							c8.14,5.015,11.76,7.519,21.207,12.944c5.409,3.108,45.561,23.004,56.002,28.726c-4.313-0.588-7.417-2.981-11.798-1.264
							c-3.476,1.455-5.096,4.195-4.39,7.849c0.605,3.142,3.704,4.157,6.06,5.899c0.596,0.444,1.146,0.93,1.594,1.514
							c0.114,0.144,0.22,0.296,0.317,0.452c-0.266-0.089-0.529-0.173-0.795-0.262c-0.897-0.296-1.797-0.584-2.706-0.871
							c-4.301-1.366-8.728-2.677-13.122-4.047c-1.501-0.469-9.925-3.311-16.298-5.764c-2.605-1.002-5.113-2.043-9.151-4.017
							c-0.271-0.131-0.546-0.266-0.829-0.406c-0.165-0.085-0.338-0.169-0.508-0.254c-0.359-0.173-0.715-0.355-1.074-0.537
							c-0.461-0.233-0.918-0.469-1.378-0.702c-0.228-0.114-0.457-0.233-0.694-0.355c-3.1-1.594-6.927-3.624-11.832-6.276
							c-4.186-2.271-9.164-4.994-15.135-8.297c-0.461-0.258-0.93-0.516-1.408-0.778c-0.715-0.397-1.442-0.799-2.182-1.209
							c-0.66-0.368-1.294-0.719-1.899-1.053c-0.427-0.237-0.837-0.465-1.239-0.685c-8.479-4.715-11.079-6.187-11.164-6.047
							c-0.211,0.351,15.232,10.775,31.597,19.693c1.015,0.554,2.064,1.116,3.138,1.683c12.581,6.665,29.216,14.306,49.781,20.865
							c0.596,0.19,1.197,0.381,1.797,0.567c1.057,0.161,2.127,0.292,3.205,0.389c5.261,0.507,10.711,0.385,15.816,0.537
							c3.455,0.106,5.552-0.245,6.702-3.658c1.049-3.104,0.787-5.595-2.085-7.857c-0.233-0.186-0.47-0.372-0.711-0.562
							c-0.474-0.385-0.956-0.778-1.446-1.18c-2.398-1.975-4.926-4.161-7.269-6.102c-0.964-0.795-2.186-1.497-3.222-2.216
							c0.292,0.089,0.554,0.199,0.863,0.279c3.573,0.951,7.125,1.298,10.458,3.112c1.962,0.474,4.174,0.956,6.415,1.4
							c0.909,0.178,1.823,0.351,2.723,0.516c2.207,0.398,4.356,0.74,6.225,0.99c7.971,1.053,13.359-0.617,14.585-8.183
							C319.916,481.515,319.811,480.175,319.451,478.995z M284.479,495.627c0.435,0.266,1.108,0.613,1.814,1.053
							c1.708,1.061,3.62,2.673,2.854,5.07c-1.011,3.163-6.293,1.011-7.138,0.93c-1.163-0.11-2.854-0.44-4.525-0.905
							c-1.197-0.334-2.377-0.74-3.349-1.188c-1.201-0.55-2.072-1.167-2.229-1.789c-0.913-3.548,0.237-4.817,3.417-6.212
							c2.085-0.913,6.11,1.197,8.99,2.939C284.369,495.559,284.424,495.593,284.479,495.627z"/>
						<path style="fill:#C1572A;" d="M318.631,443.139c-0.186-0.076-0.376-0.152-0.562-0.228
							c-5.586-2.271-11.088-4.258-16.386-7.278c-2.821-1.603-5.497-3.7-7.933-5.882c0.08-0.089,0.182-0.249,0.296-0.288
							c0.013-0.004,0.025-0.008,0.038-0.008c0.381-0.025,0.732,0.025,1.108,0.038c6.237,4.343,13.067,7.586,19.617,11.354
							c0.939,0.537,1.865,1.087,2.787,1.653C317.941,442.708,318.288,442.924,318.631,443.139z"/>
						<path style="fill:#C1572A;" d="M214.006,385.119c4.321,2.875,9.333,5.931,14.634,9c6.025,3.488,11.149,6.196,14.778,8.052
							c-1.739-1.803-4.444-4.471-7.999-7.43c-4.179-3.478-5.695-4.059-10.287-7.596c-8.708-6.707-16.707-14.09-24.053-22.201
							c-0.002-0.003-0.003-0.006-0.005-0.009c0.007,0.002,0.014,0.006,0.021,0.008c-0.044-0.41,0.387-0.912,0.634-1.057
							c1.036-0.608,3.713,1.623,4.114,2.039c3.923,4.071,18.291,11.125,20.96,12.279c11.092,4.796,15.654,2.413,25.478,0.947
							c5.797-1.426,19.584-5.794,19.141-13.317c-0.492-8.352-20.027-9.861-25.581-11.329c-5.088,11.098,3.422,12.014,10.81,15.179
							c-6.375,2.23-25.904-2.082-29.229-3.418c-9.082-3.646-39.645-25.599-39.786-25.893c-2.815-5.89-5.772-10.625-11.752-14.479
							c7.229,11.129,5.47,14.901,11.656,29.012C191.438,363.8,201.568,376.841,214.006,385.119z"/>
						<path style="fill:#C1572A;" d="M323.274,452.311c-1.167,2.867-2.157,5.058-6.512,5.514c-0.106,0.013-0.216,0.021-0.33,0.021
							c-3.21,0.135-10.593-2.131-13.896-3.594c-1.869-0.825-3.332-1.087-3.231-3.311v-0.021c1.59,0.3,3.886,0.884,5.29,1.269
							c1.81,0.495,3.434,1.273,5.07,1.954c1.112,0.457,2.224,0.871,3.408,1.121c1.155,0.245,2.372,0.33,3.713,0.148
							c0.474-0.063,2.698-1.099,3.637-2.288c0.038-0.051,0.08-0.101,0.11-0.156c0.106-0.148,0.186-0.3,0.241-0.457
							c0-0.004,0-0.008,0.004-0.013c0.013-0.034,0.021-0.068,0.03-0.102c0.017-0.068,0.068-0.165,0.131-0.275
							c0-0.004,0-0.004,0.004-0.008c0.165-0.304,0.406-0.736,0.313-1.171c-0.059-0.266-0.144-0.52-0.254-0.765
							c-0.025-0.059-0.051-0.118-0.084-0.182c-0.406-0.833-1.074-1.539-1.852-2.127c-0.008-0.004-0.013-0.008-0.017-0.008
							c-0.685-0.52-1.459-0.947-2.22-1.29c-4.554-2.059-9.223-3.78-13.816-5.76c0.55-0.165,0.935-0.385,1.544-0.444
							c2.047-0.203,3.658,0.046,5.573,1.044c3.117,1.615,6.487,2.854,9.599,4.757c0.271,0.165,0.546,0.334,0.82,0.507
							C322.547,447.935,324.437,449.466,323.274,452.311z"/>
					</g>
					<g>
						<path style="fill:#53977F;" d="M300.822,486.641c1.073,0.42,3.766,1.06,5.612,1.166c0.818,0.047,2.867,0.371,4.095,0.559
							c3.217,0.491,6.468,0.017,7.256-3.691c0.789-3.708-1.335-5.797-4.779-6.858c-4.515-1.391-9.238-2.161-13.952-2.924
							c-1.747,1.087-4.121,1.172-4.566,3.847C293.899,482.28,297.152,485.206,300.822,486.641z"/>
						<path style="fill:#53977F;" d="M211.84,502.377c3.074-1.025,2.855-3.209,0.691-5.315c-3.424-3.332-7.911-5.617-12.915-5.985
							c-0.354,0.542-0.679,1.082-0.978,1.66C199.277,499.856,204.909,504.687,211.84,502.377z"/>
						<path style="fill:#53977F;" d="M247.226,358.446c-0.816,2.177,0.173,4.465,1.449,6.377c6.081,1.838,11.641,4.027,18.093,3.636
							c1.388-0.084,2.459-0.991,2.561-2.435c0.102-1.444-0.536-2.458-1.848-3.146c-4.965-2.604-10.1-4.057-15.565-5.543
							C250.121,356.846,248.134,356.024,247.226,358.446z"/>
						<path style="fill:#53977F;" d="M266.91,497.261c1.045,2.382,4.957,3.486,8.144,4.805c2.246,0.929,7.004,2.516,10.209,2.845
							c2.188,0.225,4.918,0.704,5.808-1.973c0.472-1.42,0.459-2.955,0.025-4.161c-0.514-1.429-1.846-2.457-2.865-3.028
							c-4.75-2.663-10.993-4.643-15.697-5.679c-1.832-0.404-1.881-0.217-2.821,0.3C267.154,491.775,265.485,494.013,266.91,497.261z
							"/>
						<path style="fill:#53977F;" d="M298.293,447.473c-0.091,1.597,0.436,2.182,0.996,3.463c4.963,1.433,10.128,3.097,14.948,4.718
							c3.422,1.15,5.154-0.35,6.54-3.157c0.418-0.845,0.403-1.655,0.236-2.234c-0.481-1.668-1.862-2.413-3.159-3.046
							c-4.907-2.398-9.913-4.16-14.842-6.397C300.401,442.279,298.46,444.551,298.293,447.473z"/>
					</g>
				</g>
				<path style="fill:#644944;" d="M-44.981,250.098c0,0,9.016,34.347,24.819,30.455c15.803-3.892,125.873-54.431,115.973-78.154
					c-10.526-25.224-26.594-47.04-32.815-51.858c-26.183-20.277-54.948-19.715-63-19.283
					C-14.996,170.871-29.989,210.484-44.981,250.098z"/>
				<g>
					<path style="fill:#935852;" d="M184.805,254.268c2.769,10.902-7.148,9.314-5.314,16.359
						c6.726,25.833-15.122-2.79-16.554-11.574c-4.575-21.577-12.268-40.218-3.393-61.929
						c-34.412,51.118-4.335,114.703,4.701,170.956c2.985,5.408,1.983,11.458-3.795,14.352c-5.064,2.537-9.578-0.14-12.657-4.288
						c-8.213-18.658-15.029-34.633-19.868-54.481c-4.719-19.354-7.811-39.359-13.461-58.194
						c-3.025,13.888,6.775,32.331,8.833,46.764c2.887,11.826,5.623,24.904,7.728,36.627c2.743,15.281,5.389,29.43,8.177,44.455
						c-8.909-9.128-12.989-21.418-21.412-4.324c-23.887-41.82-19.268-95.077-40.44-132.826c8.847,20.499,11.925,42.884,15.62,64.731
						c1.737,6.863,15.936,52.553,13.531,57.008c-24-26.437-8.98,13.443-20.085-1.327c-20.553-43.812-21.054-95.017-39.931-136.678
						c1.492,1.922,1.902,4.537,2.687,6.793c5.15,19.144,2.633,35.984,4.101,55.15c1.357,11.672,5.532,14.36-8.301,17.978
						c-2.85,0.61-3.404-0.578-4.049-3.205c-8.338-44.079-11.256-81.178-9.176-125.771c5.801-14.357,5.977-33.289,14.61-46.337
						c15.719-29.559,16.626-50.102,26.815-79.625c15.484-53.727,1.972-66.327,51.741-49.183
						c6.267,2.716,41.837,11.276,42.439,16.944c-5.204,21.291-16.957,40.671-25.305,60.776
						c-10.713,34.291,10.955,52.71,26.476,79.632c7.386,17.013,8.437,31.343,12.573,48.818
						C184.935,232.197,184.855,243.331,184.805,254.268z"/>
					<path style="fill:#744242;" d="M147.416,232.644c0.279-0.315,0.941-0.319,1.212-0.225c1.141,0.396,1.231,4.016,1.183,4.614
						c-0.469,5.851,3.715,21.92,4.61,24.798c3.718,11.961,8.52,13.908,16.106,20.603c4.898,3.567,17.281,11.385,22.64,5.904
						c5.95-6.086-5.811-22.417-8.373-27.77c-11.697,3.589-6.768,10.88-4.269,18.827c-5.883-3.471-15.534-21.711-16.726-25.227
						c-3.398-10.025-6.214-41.616-9.079-44.454c-0.314-0.311-0.649,0.654-1.022,0.425
						C151.302,215.117,145.24,227.275,147.416,232.644z"/>
					<path style="fill:#754342;" d="M161.356,152c1.577,3.365,3.781,8.314,6.077,14.44c4.156,11.086,7.628,23.385,6.897,23.647
						c-0.285,0.102-1.349-1.575-4.993-10.173c-8.448-21.31-27.026-37.781-31.817-60.616c0.015-0.353,0.037-0.655,0.06-1.026
						c1.15-18.644,8.312-35.735,18.178-51.304c-4.901,9.114-8.928,20.831-10.652,30.378c-2.201,12.185-1.459,22.358,2.603,33.242
						C150.804,138.881,155.85,145.276,161.356,152z"/>
					<path style="fill:#744242;" d="M38.479,314.004c2.316,5.813,3.261,8.676,5.265,13.512c1.467,3.54,2.924,5.076,6.101,7.254
						c4.611,3.161,8.423-3.082,9.808-7.127c2.888-6.438-3.913-30.173-4.66-38.604c-0.162-1.83-0.411-4.605-0.51-6.553
						c1.694-9.289-4.788-36.15-8.664-45.156c2.513,10.827,3.824,13.59,4.818,26.586c0.865,11.312-1.998,31.215,1.763,43.364
						c1.548,5,1.895,5.917-0.756,9.571c0.333,3.688,2.24,7.014,2.551,10.832c0.119,1.46,0.247,3.271-1.495,3.857
						c-1.387,0.466-2.248-0.859-2.986-1.875c-3.195-4.402-2.072-7.858,0.017-12.53c-2.803-0.712-4.515,0.962-6.899,2.689
						c-3.408-15.675,2.214-2.134-3.648-22.468c-6.146-21.318-5.738-64.32-6.58-88.198c-0.503-14.271,2.608-26.048,4.748-33.937
						c2.923-10.772,3.25-11.188,5.505-17.548c3.513-9.91,6.307-16.569,10.848-24.657c5.39-9.6,9.985-17.958,11.99-28.77
						s3.517-21.878,6.99-32.492c3.521-10.763,7.203-21.592,10.269-32.516c1.539-5.482,3.509-10.048,5.632-15.598
						c1.782-4.662,3.381-10.894,3.91-15.989c0.133-1.282,0.674-1.566,1.069-2.605c-2.69-1.974-5.269-3.055-8.654-2.963
						c-3.368,9.495-6.934,18.868-10.719,28.205C66.645,47.939,60.514,65.96,55.54,84.51c-0.879,8.655-3.871,17.29-4.989,25.822
						c-2.009,15.331-8.47,29.507-14.173,43.544c-5.058,12.468-7.972,22.186-9.873,36.628c-0.743,5.641-0.945,18.937-0.637,26.52
						c1.192,29.408,3.162,61.456,10.162,89.364C37.586,312.595,37.207,310.811,38.479,314.004z"/>
					<path style="fill:#744242;" d="M53.572,267.258c0.011,1.24,0.147,2.455,0.341,3.678
						C53.831,269.698,53.912,268.463,53.572,267.258z"/>
					<g>
						<path style="fill:#744242;" d="M100.161,367.456c-3.361-1.699-6.513-1.07-8.792,1.854c-2.58,3.311,0.439,7.48-0.668,11.177
							c-1.802-3.529-4.431-9.007-7.048-15.923c-4.737-12.52-6.657-22.416-7.385-25.997c-2.148-10.567-6.306-27.083-15.181-52.635
							c1.529,10.941,3.681,22.713,6.686,35.138c5.205,21.522,11.853,40.392,18.63,56.399c3.379,5.308,7.916,10.187,11.827,14.927
							c2.199,2.665,3.842,4.031,7.168,2.631c3.025-1.273,4.729-3.035,4.537-6.757c-0.192-3.721-0.192-8.309-0.3-12.239
							c-0.034-1.238-0.315-2.643-0.455-3.884c0.124,0.276,0.218,0.547,0.357,0.83c1.638,3.317,3.715,6.218,4.543,9.923
							c2.24,4.283,5.407,9.683,7.93,13.473c4.456,6.695,9.259,9.648,15.764,5.592c4.481-2.795,4.419-6.918,4.394-10.804
							c-0.052-8.095-3.489-16.956-5.267-23.945c-3.9-15.333-5.661-28.595-9.15-44.192c-1.006-4.494-3.494-13.78-4.827-18.907
							c2.613,15.99,5.454,32.915,8.301,48.811c2.419,13.506,5.188,25.715,8.709,38.796c-1.591-1.725-2.508-3.567-3.899-5.422
							c-2.06-2.745-2.996-5.685-6.639-6.577c-0.917,1.9,0.46,3.181,1.347,4.655c1.791,2.976,3.447,5.801,4.759,8.935
							c0.949,2.269,1.664,4.858-0.884,6.213s-4.063-0.203-5.736-2.43c-4.883-6.5-7.266-11.009-2.666-18.65
							c-7.441,0.187-7.759,3.271-6.846,9.867c-8.8-18.113-22.388-60.966-22.684-62.456c-3.175-15.991-4.074-30.219-9.085-46.374
							c-1.987-6.405-6.786-18.227-10.15-25.015c0.23,1.169,0.565,3.194,1.098,4.47c4.03,9.649,7.011,21.268,8.672,30.967
							c1.822,10.643,2.255,14.883,4.51,26.187c1.22,6.117,12.684,49.44,15.258,61.061
							C104.577,373.545,104.36,369.578,100.161,367.456z M105.181,383.733c0.313,1.725,1.638,6.166-1.511,7.535
							c-3.149,1.369-4.918-4.061-5.422-4.75c-1.802-2.462-4.805-8.598-3.74-10.155c2.069-3.024,3.779-2.99,6.928-1.519
							C103.539,375.825,104.58,380.412,105.181,383.733z"/>
					</g>
					<path style="fill:#744242;" d="M146.916,376.2c-7.418-18.658-12.068-36.567-17.507-55.915
						c-5.042-17.938-8.699-35.393-12.351-53.677c-0.79-2.027-3.188-7.91-5.074-3.774c3.07,4.253,3.734,8.957,4.023,14.041
						c1.619,16.667,6.42,32.579,11.315,48.64C132.757,343.343,138.266,359.461,146.916,376.2z"/>
					<path style="fill:#744242;" d="M160.911,348.205c-0.238-0.291-0.431-0.59-0.703-0.862c-0.091-0.091-0.311-0.054-0.441-0.055
						c-0.04,3.27,0.147,6.665,0.795,9.845c1.258,6.174,3.488,11.788,5.513,17.697C164.658,365.876,161.918,357.242,160.911,348.205z
						"/>
					<path style="fill:#744242;" d="M147.525,234.872c2.436-7.487,4.457-14.962,7.95-22.059c0.424-1.11,0.787-2.239,1.249-3.335
						c0.129-0.306,0.313-0.603,0.441-0.902c2.579-5.997,4.196-11.34,3.159-18.379c-3.616,12.769-7.613,13.929-14.16,27.875
						c-5.392,11.485-6.167,22.715-5.311,39.813c0.396,7.926,1.789,19.498,6.446,32.912c-0.219-9.902-0.464-17.835-0.645-23.204
						C146.384,259.618,146.179,255,147.525,234.872z"/>
					<path style="fill:#744242;" d="M157.547,361.544c0.487,0.303,0.904,0.45,1.349,0.867c1.501,1.41,2.373,2.786,2.886,4.883
						c0.834,3.411,2.122,6.763,2.738,10.358c0.444,2.592,1.019,5.573-2.29,6.715c-2.927,1.01-5.227,1.703-8.439-1.27
						c-2.218-2.054-5.565-9.489-6.677-13.059c-0.611-1.959-1.382-3.232,0.38-4.628c0.82,1.394,1.895,3.505,2.531,4.817
						c1.911,3.941,1.991,8.153,5.601,11.297c0.432,0.376,3.58,1.735,4.917,1.042c0.235-0.122,1.024-0.126,1.388-0.622
						c1.261-1.716,0.997-4.165,0.378-6.209C160.858,370.95,159.078,366.304,157.547,361.544z"/>
					<path style="fill:#E1081B;" d="M121.608,390.071c0.391,1.084,1.682,3.533,2.818,4.991c0.503,0.646,1.609,2.402,2.276,3.45
						c1.749,2.745,4.245,4.879,7.555,3.031c3.31-1.848,3.484-4.821,2.015-8.112c-1.926-4.314-4.456-8.376-6.985-12.426
						c-1.969-0.599-3.596-2.33-5.902-0.903C120.332,381.99,120.271,386.364,121.608,390.071z"/>
					<path style="fill:#D8081E;" d="M51.63,316.822c3.018,4.009,4.253,8.89,4,13.661c-0.16,3.016-1.66,4.619-4.455,2.98
						c-6.302-3.695-6.374-11.115-1.437-16.284C50.369,317.024,50.989,316.912,51.63,316.822z"/>
					<path style="fill:#E4071F;" d="M178.955,270.613c0.598-2.219,1.669-4.47,3.845-5.289c2.421-0.912,3.11,1.125,3.925,2.797
						c2.48,5.092,4.767,9.913,6.077,15.364c0.346,1.441,0.003,2.588-1.151,3.463c-1.153,0.874-2.542,0.665-3.519-0.324
						C183.589,282.027,181.575,276.4,178.955,270.613z"/>
					<path style="fill:#ED061F;" d="M100.401,371.038c2.317,4.223,4.938,10.225,6.062,15.554c0.241,1.143,0.344,2.823-0.393,4.151
						c-0.622,1.12-1.769,2.141-3.148,2.721c-2.601,1.094-4.038-1.277-5.31-3.072c-1.862-2.629-3.801-7.254-4.58-9.557
						c-1.106-3.267-2.851-6.939-1.747-9.293c1.507-3.212,4.29-3.429,7.032-2.429C99.326,369.48,99.499,369.393,100.401,371.038z"/>
					<path style="fill:#E1081B;" d="M160.445,382.608c0.911-0.242,1.511-0.786,1.837-1.293c0.938-1.46,0.59-2.99,0.213-4.383
						c-1.427-5.272-3.396-10.2-4.958-15.383c-2.817-1.005-5.805-0.969-8.114,0.829c-1.262,0.983-1.355,1.764-1.95,3.03
						c2.189,4.679,4.338,9.662,6.292,14.357C155.15,383.098,157.419,383.413,160.445,382.608z"/>
				</g>
				<path style="fill:#E2B433;" d="M59.647-5.953c0,0-17.911,30.663-3.985,39.085S183.155,83.649,192.93,59.873
					C202.705,36.098,206.396,0,206.396,0L59.647-5.953z"/>
				<g>
					<path style="fill:#FEB694;" d="M244.322,164.013c-9.916,5.309-10.759-4.7-17.157-1.226
						c-23.459,12.739-0.927-15.349,7.256-18.851c19.845-9.628,36.089-21.576,59.298-18.181
						c-57.892-21.115-112.382,23.365-164.813,45.659c-4.532,4.198-10.645,4.679-14.844-0.233c-3.68-4.306-2.167-9.33,1.12-13.316
						c16.137-12.457,30.005-22.913,48.108-32.382c17.652-9.233,36.328-17.043,53.252-27.055
						c-14.208,0.402-29.754,14.348-43.269,19.815c-10.785,5.645-22.822,11.445-33.695,16.306
						c-14.174,6.336-27.272,12.305-41.186,18.623c6.719-10.842,17.667-17.757-0.949-21.823
						c34.852-33.239,87.658-41.558,119.21-71.184c-17.771,13.515-38.76,21.884-59.078,30.723
						c-6.244,3.335-47.181,28.102-52.084,26.839c19.892-29.651-15.208-5.485-3.54-19.815c37.587-30.482,87.17-43.277,123.071-71.615
						c-1.507,1.91-3.946,2.937-5.948,4.241c-17.345,9.601-34.296,11.206-52.547,17.238c-11.003,4.123-12.609,8.822-19.446-3.736
						c-1.277-2.62-0.257-3.443,2.138-4.701C190,20.648,225.31,8.898,269.095,0.197c15.331,2.18,33.749-2.201,48.49,3.042
						c32.471,8.152,52.63,4.094,83.736,6.888c55.874,2.115,64.857-14.03,60.178,38.401c-1.13,6.736-0.888,43.321-6.246,45.268
						c-21.918,0.067-43.555-6.683-65.077-9.954c-35.861-2.156-48.53,23.305-70.933,44.842
						c-14.739,11.259-28.395,15.724-44.364,23.939C265.778,158.834,254.951,161.433,244.322,164.013z"/>
					<g>
						<path style="fill:#D5997C;" d="M364.979,85.481c-0.366,0.067-0.664,0.118-1.011,0.188
							c-21.013,10.14-32.535,32.133-51.19,45.455c-4.455,1.604-10.211,4.447-0.27,3.827c9.332-4.924,16.564-12.752,25.447-18.284
							c5.204-6.961,10.197-13.396,17.503-18.394c9.589-6.56,19.285-9.725,31.642-10.518c9.681-0.621,22.023,0.471,32.047,3.037
							C401.664,84.96,383.352,82.116,364.979,85.481z"/>
						<path style="fill:#D5997C;" d="M465.101,6.425C455.074,5.439,445.12,4.23,435.147,2.8c-18.949-3.081-37.916-4.7-57.117-5.069
							c-5.224,0.744-10.628,0.733-15.98,0.824c1.375-0.084,2.751-0.155,4.129-0.196c-8.38-1.189-16.319,0.132-24.685,0.646
							c2.849,0.303,5.691,0.346,8.531,0.266c-14.78,1.343-29.503-1.385-43.933-3.465c-13.319-1.912-23.452-2.405-37.927-0.779
							c-5.654,0.635-18.609,3.635-25.896,5.756c-28.259,8.226-58.893,17.842-84.301,31.345c-5.651,3.003-4.012,2.206-6.805,4.208
							c-5.086,3.645-7.638,5.251-11.851,8.359c-3.084,2.275-4.224,4.059-5.575,7.666c-1.96,5.236,5.016,7.435,9.276,7.808
							c6.944,1.256,28.347-11.052,36.352-13.803c1.737-0.597,4.371-1.506,6.238-2.071c9.424-0.589,33.939-13.337,41.749-19.265
							c-9.905,5.042-12.272,6.979-24.649,11.067c-10.772,3.559-30.779,5.565-41.669,12.136c-4.482,2.704-5.288,3.262-9.473,1.566
							c-3.499,1.21-6.27,3.86-9.901,5.08c-1.389,0.467-3.116,1.026-4.103-0.524c-0.786-1.235,0.294-2.389,1.102-3.349
							c3.505-4.159,7.129-3.9,12.167-2.995c0.018-2.892-2.02-4.151-4.268-6.051c14.396-7.077,2.604,1.637,20.932-8.942
							c19.215-11.091,61.055-21.031,84.03-27.588c13.732-3.919,25.911-3.731,34.083-3.549c11.159,0.247,11.641,0.466,18.357,1.125
							c10.464,1.028,17.599,2.139,26.542,4.603c10.614,2.924,19.832,5.376,30.809,4.722c10.977-0.653,22.082-1.846,33.219-1.026
							c11.294,0.831,22.69,1.801,34.031,2.151c5.691,0.176,10.597,0.991,16.495,1.717c4.954,0.61,11.387,0.663,16.46-0.048
							c1.276-0.179,1.682,0.277,2.786,0.411C465.574,12.452,466.004,9.689,465.101,6.425z"/>
						<path style="fill:#D5997C;" d="M218.503,95.387c-3.391,4.002-7.797,5.778-12.663,7.281c-10.939,3.865-21.16,9.126-31.2,14.857
							c-13.01,5.597-26.469,11.441-39.178,17.126c-12.525,5.603-23.717,11.211-35.565,17.78c1.291-1.96,2.86-3.292,4.326-5.089
							c2.17-2.659,4.798-4.275,4.788-8.025c-2.065-0.433-2.978,1.211-4.195,2.426c-2.458,2.454-4.802,4.74-7.529,6.767
							c-1.974,1.467-4.316,2.783-6.244,0.636c-1.928-2.147-0.78-3.993,0.98-6.153c5.137-6.301,8.94-9.7,17.463-7.07
							c-1.971-7.178-5.04-6.745-11.224-4.273c15.467-12.896,83.521-48.26,98.002-56.998c5.741-3.465,16.059-10.973,21.842-15.866
							c-1.08,0.502-2.964,1.317-4.075,2.14c-8.399,6.228-18.959,11.918-27.975,15.861c-9.893,4.326-13.906,5.764-24.335,10.673
							c-5.644,2.656-44.939,24.197-55.605,29.488c2.95-3.203,6.69-4.379,7.787-8.955c0.799-3.681-0.524-6.578-3.922-8.09
							c-3.847-1.711-7.149,2.225-11.013,2.038c4.536-3.383,9.125-7.077,13.763-10.669c1.242-0.962,8.392-6.244,14.052-10.066
							c5.855-3.954,11.522-7.257,44.011-23.171c11.286-5.528,14.643-7.109,14.568-7.276c-0.167-0.373-17.55,6.327-34.23,14.643
							c-13.502,6.732-31.074,16.784-50.266,31.641c-4.344,4.556-7.98,10.132-11.648,15.069c-2.063,2.776-2.973,4.695-0.834,7.592
							c1.945,2.634,4.137,3.845,7.634,2.784c3.646-1.106,8.001-2.178,11.827-3.239c1.206-0.334,2.481-0.937,3.662-1.375
							c-0.239,0.187-0.479,0.343-0.72,0.546c-2.827,2.387-5.142,5.101-8.54,6.795c-3.619,3.204-8.1,7.576-11.172,10.935
							c-5.427,5.935-7.139,11.309-1.638,16.645c3.789,3.676,7.778,2.628,11.543,1.668c7.844-1.999,15.622-7.458,21.977-10.87
							c13.552-7.277,25.714-12.087,39.513-18.921c-0.374,0.224-0.749,0.447-1.123,0.67c-15.998,9.56-30.32,18.782-44.488,31.203
							c16.328-11.685,32.593-20.505,50.067-30.435c16.2-9.206,32.264-16.952,49.134-24.892
							C217.837,99.966,222.971,96.223,218.503,95.387z M99.294,116.769c-1.61,0.704-5.532,3.149-7.693,0.324
							c-2.015-2.636,2.77-5.735,3.323-6.385c1.973-2.319,7.194-6.726,8.963-6.065c3.435,1.284,3.815,2.954,3.14,6.359
							C106.575,113.275,102.393,115.413,99.294,116.769z"/>
						<path style="fill:#D5997C;" d="M138.646,165.209c-5.691,2.705-10.604,6.22-15.852,9.606
							c8.35-3.528,16.073-8.264,24.602-11.413c0.225-0.301,0.469-0.561,0.668-0.889c0.067-0.11-0.023-0.314-0.052-0.442
							C144.827,162.818,141.577,163.816,138.646,165.209z"/>
						<path style="fill:#D5997C;" d="M230.247,122.219c-6.689,2.628-24.781,10.157-31.633,16.447
							c6.953-2.86,15.814-6.028,23.604-8.483c10.484-3.303,21.115-5.637,31.972-7.02c0.003,0,0.007,0.001,0.01,0.001
							c-0.006,0.004-0.013,0.008-0.018,0.012c0.362,0.199,0.526,0.84,0.504,1.124c-0.094,1.198-3.456,2.116-4.026,2.207
							c-5.584,0.887-19.591,8.634-22.064,10.162c-10.281,6.351-10.937,11.456-15.357,20.352c-2.148,5.57-6.456,19.376-0.033,23.318
							c7.131,4.376,19.547-10.78,23.93-14.494c-6.19-10.524-11.81-4.07-18.634,0.178c1.82-6.504,16.532-20.051,19.53-22.014
							c8.188-5.361,34.995-14.741,38.963-18.538c0.173,0.036,0.346,0.069,0.519,0.107c1.179,0.145,2.362,0.225,3.538,0.411
							c0.328,0.052,0.661,0.158,0.982,0.211c6.441,1.062,12.017,1.347,18.599-1.352c-13.264-0.441-15.351-4.042-30.462-7.044
							C260.645,115.911,244.153,116.755,230.247,122.219z M283.962,124.622c0.216,0.03,0.432,0.063,0.648,0.093
							c-0.223,0.079-0.446,0.157-0.669,0.236C283.954,124.842,283.961,124.733,283.962,124.622z"/>
						<path style="fill:#D5997C;" d="M133.122,164.859c0.299-0.532,0.34-0.972,0.518-1.518c-4.252,2.631-8.334,5.475-12.631,8.033
							c-1.835,1.092-4.149,1.937-6.118,1.126c-0.569-0.234-0.762-0.999-0.937-1.198c-0.994-1.131-0.432-4.513-0.17-5.023
							c2.184-4.259,6.253-5.349,9.619-8.152c1.121-0.933,2.911-2.484,4.067-3.615c-1.779-1.375-2.829-0.32-4.583,0.744
							c-3.198,1.938-9.611,6.974-11.071,9.621c-2.114,3.832-0.888,5.898,0.796,8.497c1.904,2.938,4.659,1.663,7.068,0.609
							c3.341-1.462,6.286-3.518,9.396-5.148C130.988,167.832,132.114,166.656,133.122,164.859z"/>
					</g>
					<g>
						<path style="fill:#70433E;" d="M97.31,135.314c-0.958,0.64-3.025,2.482-4.167,3.935c-0.506,0.644-1.944,2.139-2.802,3.039
							c-2.244,2.357-3.715,5.294-1.126,8.062c2.59,2.769,5.517,2.223,8.358,0.006c3.724-2.907,7.059-6.339,10.382-9.768
							c0.108-2.055,1.397-4.051-0.542-5.946C104.848,132.133,100.587,133.126,97.31,135.314z"/>
						<path style="fill:#70433E;" d="M135.327,53.338c-0.919,3.107,0.998,4.178,3.963,3.608c4.692-0.901,9.134-3.273,12.299-7.166
							c-0.242-0.601-0.499-1.176-0.802-1.751C144.584,44.479,137.399,46.333,135.327,53.338z"/>
						<path style="fill:#70433E;" d="M233.109,164.725c-1.319-1.915-3.76-2.414-6.058-2.461c-4.987,3.935-9.965,7.242-13.336,12.757
							c-0.725,1.186-0.595,2.584,0.531,3.493c1.126,0.91,2.323,0.967,3.638,0.285c4.976-2.581,9.107-5.961,13.453-9.592
							C232.764,168.014,234.576,166.855,233.109,164.725z"/>
						<path style="fill:#70433E;" d="M108.007,101.427c-2.551-0.506-5.696,2.07-8.601,3.929c-2.048,1.31-6.071,4.304-8.175,6.743
							c-1.437,1.665-3.392,3.63-1.706,5.892c0.894,1.199,2.161,2.068,3.398,2.402c1.466,0.396,3.071-0.108,4.123-0.617
							c4.902-2.371,10.098-6.358,13.641-9.623c1.38-1.271,1.254-1.418,1.368-2.485C112.367,104.767,111.487,102.117,108.007,101.427
							z"/>
						<path style="fill:#70433E;" d="M130.877,155.655c-1.258-0.989-2.038-0.891-3.41-1.165c-4.015,3.25-8.336,6.533-12.423,9.558
							c-2.902,2.148-2.663,4.426-1.154,7.17c0.454,0.826,1.126,1.278,1.697,1.472c1.643,0.56,3.044-0.146,4.306-0.847
							c4.774-2.652,9.084-5.749,13.74-8.511C133.931,160.356,133.178,157.464,130.877,155.655z"/>
					</g>
				</g>
				<path style="fill:#CE3A10;" d="M463.931,339.509c-2.419,3.649-4.808,7.295-7.147,10.948
					C456.679,350.322,458.429,347.755,463.931,339.509z"/>
				<g>
					<path style="fill:#9D8C89;" d="M480.565,3.634C466.314-1.823,393.714-28.93,379.239-7.632
						c-4.144,6.096-1.48,16.057,3.847,35.978c9.378,35.07,14.385,53.794,31.653,66.032c19.168,13.584,42.014,10.713,59.873,9.168
						c32.852-2.843,52.795-16.962,58.183-21.046C515.386,56.211,497.976,29.923,480.565,3.634z"/>
				</g>
				<path style="fill:#644944;" d="M506.523-21.785c0,0-30.663-17.912-39.085-3.985c-8.422,13.927-50.517,127.494-26.742,137.269
					c25.279,10.393,52.067,14.458,59.873,13.465c32.852-4.176,52.795-24.913,58.184-30.913
					C541.344,55.439,523.934,16.827,506.523-21.785z"/>
				<g>
					<path style="fill:#70433E;" d="M297.596,189.954c-8.052-7.854,1.237-11.675-4.005-16.728
						c-19.22-18.525,14.355-5.513,20.161,1.233c15.164,16.017,31.455,27.903,35.216,51.055
						c2.674-61.564-56.167-100.104-93.234-143.372c-5.369-3.055-7.671-8.739-4.254-14.223c2.996-4.807,8.243-4.879,13.034-2.948
						c16.743,11.629,30.895,21.699,45.382,36.103c14.126,14.046,27.205,29.497,41.854,42.615
						c-4.668-13.426-22.653-24.042-31.941-35.28c-8.635-8.58-17.794-18.308-25.708-27.209
						c-10.316-11.603-19.956-22.292-30.176-33.652c12.363,3.136,22.258,11.49,20.521-7.486
						c42.202,23.206,66.057,71.045,103.819,92.195c-18.245-12.869-32.553-30.356-47.108-47.063
						c-5.063-4.948-41.022-36.51-41.296-41.566c34.27,10.025,0.644-16.154,17.825-9.351c40.398,26.645,67.55,70.062,105.394,95.746
						c-2.275-0.861-3.99-2.877-5.837-4.392c-14.384-13.642-21.026-29.32-32.281-44.903c-7.249-9.248-12.213-9.362-2.302-19.668
						c2.113-2.008,3.205-1.284,5.127,0.621c30.118,33.248,51.969,63.371,73.468,102.494c2.545,15.275,12.276,31.514,11.722,47.15
						c2.019,33.417,11.967,51.415,18.684,81.915c14.833,53.911,32.935,57.606-18.466,68.957
						c-6.764,0.954-41.572,12.217-45.044,7.696c-6.673-20.877-6.762-43.543-10.134-65.049
						c-8.759-34.842-36.855-39.243-64.145-54.108c-15.18-10.657-23.555-22.332-36.203-35.08
						C309.004,208.848,303.261,199.31,297.596,189.954z"/>
					<path style="fill:#583232;" d="M340.531,188.532c-0.075,0.412-0.637,0.762-0.917,0.824c-1.178,0.26-3.13-2.759-3.398-3.29
						c-2.63-5.202-14.52-16.628-16.773-18.599c-9.365-8.19-14.468-7.332-24.404-9.041c-6.024-0.464-20.633-0.62-22.364,6.823
						c-1.923,8.262,16.564,15.954,21.521,19.15c8.117-9.149,0.138-12.751-6.108-18.178c6.815-0.132,24.49,10.279,27.327,12.635
						c8.09,6.718,26.849,32.007,30.762,32.914c0.429,0.1,0.214-0.893,0.652-0.894C346.293,205.407,345.167,191.943,340.531,188.532z
						"/>
					<path style="fill:#593332;" d="M371.118,256.937c9.737,5.52,22.563,13.251,37.254,23.468c0.171,0.309,0.31,0.578,0.484,0.907
						c8.749,16.503,11.561,34.82,11.27,53.249c-0.576-10.332-3.257-22.429-6.768-31.471c-2.649-6.821-5.807-12.506-9.835-17.494
						c-1.817-2.25-4.471-5.171-9.735-9.503c-12.914-10.629-20.466-12.369-38.779-24.745c-2.957-1.998-10.556-7.134-10.204-7.724
						C345.295,242.802,360.918,251.154,371.118,256.937z"/>
					<path style="fill:#5A3132;" d="M492.285,256.184c-2.724-7.798-6.409-15.214-8.06-23.341
						C487.238,240.665,490.892,247.836,492.285,256.184z"/>
					<path style="fill:#583232;" d="M391.236,62.63c-5.009-3.75-7.31-5.699-11.543-8.778c-3.099-2.254-5.144-2.804-8.99-3.003
						c-5.583-0.29-5.576,7.024-4.647,11.198c0.896,6.999,19.085,23.695,24.123,30.498c1.093,1.476,2.754,3.714,3.856,5.323
						c3.403,8.807,22.951,28.337,30.958,33.996c-7.794-7.924-10.355-9.597-17.985-20.164c-6.642-9.198-14.587-27.669-24.136-36.069
						c-3.93-3.458-4.704-4.058-4.35-8.559c-2.209-2.972-5.571-4.814-7.83-7.908c-0.864-1.183-1.918-2.661-0.737-4.07
						c0.94-1.122,2.366-0.44,3.525,0.041c5.023,2.088,5.868,5.621,6.525,10.697c2.763-0.855,3.349-3.178,4.482-5.894
						c11.088,11.592-0.775,2.976,14.838,17.261c16.369,14.976,38.464,51.871,51.644,71.799c7.877,11.911,11.371,23.58,13.662,31.426
						c3.129,10.714,3.066,11.24,4.463,17.842c2.175,10.287,3.267,17.425,3.615,26.694c0.413,11.002,0.855,20.53,4.788,30.799
						c3.933,10.269,8.419,20.497,10.996,31.364c2.613,11.018,5.125,22.177,8.211,33.096c1.549,5.479,2.251,10.402,3.337,16.244
						c0.912,4.907,2.801,11.057,5.009,15.68c0.555,1.163,0.243,1.688,0.448,2.78c3.324,0.28,6.089-0.144,8.928-1.989
						c-2.083-9.857-3.932-19.713-5.576-29.653c-2.777-18.996-6.952-37.568-12.391-55.987c-3.767-7.842-5.722-16.768-9.221-24.63
						c-6.288-14.126-8.175-29.59-10.636-44.54c-2.193-13.275-4.779-23.085-10.695-36.396c-2.31-5.199-9.078-16.647-13.298-22.955
						c-16.365-24.463-34.771-50.771-55.308-70.924C392.732,63.366,393.987,64.69,391.236,62.63z"/>
					<path style="fill:#583232;" d="M402.758,110.382c-0.656-1.052-1.407-2.017-2.21-2.96
						C401.264,108.436,401.839,109.531,402.758,110.382z"/>
					<path style="fill:#583232;" d="M311.679,48.714c3.751-0.348,6.114-2.483,6.531-6.179c0.472-4.184-4.278-6.145-5.264-9.886
						c4.594,3.304,9.499,6.566,14.323,9.905c1.292,0.894,8.484,6.118,13.835,10.363c5.535,4.39,10.394,8.797,35.364,34.974
						c8.675,9.093,11.194,11.817,11.33,11.696c0.306-0.272-11.325-14.826-24.284-28.221c-10.491-10.844-25.373-24.566-45.327-38.385
						c-5.654-2.768-12.067-4.553-17.88-6.562c-3.268-1.13-5.373-1.419-7.49,1.495c-1.925,2.649-2.419,5.104-0.353,8.118
						c2.154,3.143,4.489,6.972,6.655,10.3c0.682,1.049,1.642,2.083,2.416,3.076c-0.25-0.172-0.471-0.353-0.738-0.522
						c-3.128-1.975-6.414-3.365-9.054-6.093c-4.146-2.484-9.666-5.438-13.795-7.354c-7.295-3.385-12.935-3.396-16.365,3.458
						c-2.362,4.721-0.16,8.208,1.89,11.509c4.271,6.876,11.822,12.646,16.991,17.676c11.34,11.033,19.74,21.449,30.871,32.919
						c3.208,3.305,10.165,9.938,13.984,13.61c-10.581-12.269-21.824-25.236-32.557-37.303
						c-9.119-10.252-17.841-19.232-27.677-28.548c2.258,0.64,4.001,1.734,6.157,2.59c3.19,1.267,5.522,3.285,9.095,2.145
						c-0.21-2.1-2.053-2.474-3.579-3.268c-3.081-1.604-5.968-3.149-8.722-5.138c-1.994-1.44-3.954-3.276-2.489-5.761
						c1.466-2.485,3.572-1.948,6.162-0.921c7.557,2.997,11.944,5.598,12.007,14.518c6.25-4.044,4.912-6.839,0.689-11.989
						c16.96,10.858,71.2,65.08,83.898,76.251c5.035,4.429,15.305,12.003,21.714,16.041c-0.805-0.879-2.149-2.429-3.27-3.24
						c-8.471-6.13-17.08-14.482-23.558-21.89c-7.108-8.128-9.689-11.52-17.515-19.984c-4.235-4.58-36.622-35.55-44.883-44.124
						C304.736,45.836,306.986,49.048,311.679,48.714z M298.907,37.43c-1.157-1.323-4.671-4.326-2.628-7.237
						c1.905-2.716,6.304,0.912,7.09,1.243c2.806,1.182,8.583,4.831,8.486,6.717c-0.188,3.662-1.666,4.528-5.116,4.911
						C304.434,43.319,301.133,39.976,298.907,37.43z"/>
					<path style="fill:#583232;" d="M266.277,66.172c16.065,12.044,29.379,24.893,44.116,38.558
						c13.663,12.669,25.892,25.65,38.55,39.341c1.732,1.317,6.848,5.083,6.298,0.571c-4.838-2.026-7.86-5.692-10.76-9.878
						c-10.079-13.372-22.48-24.439-35.038-35.584C295.504,86.809,282.393,75.935,266.277,66.172z"/>
					<path style="fill:#583232;" d="M268.95,97.355c0.355,0.124,0.676,0.278,1.049,0.368c0.125,0.03,0.293-0.116,0.405-0.183
						c-1.672-2.81-3.604-5.609-5.816-7.983c-4.296-4.61-9.128-8.235-13.939-12.218C256.532,84.238,263.376,90.173,268.95,97.355z"/>
					<path style="fill:#583232;" d="M339.519,187.042c1.83,7.658,4.007,15.089,4.731,22.966c0.218,1.168,0.498,2.32,0.675,3.497
						c0.05,0.328,0.048,0.678,0.094,1c0.929,6.461,2.339,11.863,6.898,17.326c-3.58-12.779-0.776-15.855-2.47-31.168
						c-1.375-12.434-6.438-22.288-16.248-36.732c-4.674-6.881-12.149-16.331-23.465-25.585c6.469,9.793,10.845,16.402,13.45,20.331
						C327.66,165.427,330.25,169.322,339.519,187.042z"/>
					<path style="fill:#583232;" d="M264.859,84.221c-0.574-0.005-1.006,0.088-1.603-0.036c-2.017-0.419-3.478-1.138-5.01-2.659
						c-2.492-2.474-5.34-4.662-7.741-7.406c-1.732-1.979-3.778-4.222-1.551-6.923c1.97-2.389,3.57-4.181,7.861-3.321
						c2.964,0.594,9.699,5.19,12.511,7.654c1.543,1.352,2.866,2.035,2.091,4.146c-1.427-0.761-3.446-2.001-4.674-2.788
						c-3.688-2.364-5.954-5.915-10.673-6.713c-0.565-0.095-3.959,0.388-4.738,1.677c-0.137,0.227-0.808,0.642-0.86,1.255
						c-0.18,2.122,1.323,4.073,2.918,5.493C257.125,77.927,261.068,80.961,264.859,84.221z"/>
					<path style="fill:#C2BDBF;" d="M280.626,41.131c-0.899-0.721-3.279-2.135-5.008-2.787c-0.766-0.289-2.625-1.209-3.742-1.755
						c-2.924-1.429-6.168-1.946-8.027,1.358c-1.859,3.304-0.455,5.931,2.515,7.971c3.895,2.675,8.172,4.819,12.444,6.954
						c1.992-0.517,4.284,0.111,5.506-2.31C285.932,47.359,283.701,43.595,280.626,41.131z"/>
					<path style="fill:#C2BDBF;" d="M378.547,67.091c-4.667-1.844-8.268-5.364-10.542-9.565c-1.437-2.656-0.994-4.806,2.245-4.867
						c7.304-0.137,11.239,6.155,9.725,13.14C379.517,66.26,379.047,66.679,378.547,67.091z"/>
					<path style="fill:#C2BDBF;" d="M294.055,172.959c0.648,2.205,0.909,4.684-0.519,6.518c-1.589,2.041-3.24,0.664-4.808-0.338
						c-4.773-3.049-9.241-5.968-13.202-9.934c-1.047-1.048-1.353-2.207-0.826-3.554c0.527-1.348,1.821-1.894,3.171-1.56
						C284.145,165.642,288.8,169.39,294.055,172.959z"/>
					<path style="fill:#C2BDBF;" d="M308.649,46.298c-4.181-2.393-9.549-6.145-13.288-10.104c-0.802-0.849-1.767-2.228-1.831-3.745
						c-0.054-1.28,0.392-2.749,1.265-3.964c1.648-2.29,4.111-1.018,6.132-0.151c2.96,1.271,7.028,4.204,8.895,5.761
						c2.649,2.209,6.054,4.431,6.34,7.016c0.391,3.526-1.87,5.164-4.731,5.742C310.379,47.066,310.277,47.23,308.649,46.298z"/>
					<path style="fill:#C2BDBF;" d="M251.393,67.766c-0.651,0.682-0.878,1.459-0.892,2.062c-0.038,1.736,1.057,2.858,2.106,3.85
						c3.969,3.752,8.221,6.928,12.258,10.534c2.928-0.613,5.458-2.203,6.489-4.942c0.564-1.497,0.235-2.212,0.082-3.602
						c-4.309-2.848-8.743-5.978-12.86-8.963C255.654,64.585,253.554,65.501,251.393,67.766z"/>
				</g>
				<g>
					<path style="fill:#CE3A10;" d="M432.748,235.161c3.937-5.996,7.933-11.832,12.065-17.372c0.258-0.846,0.579-1.641,0.964-2.377
						c0.524-1.006,1.163-1.907,1.894-2.668c0.144-0.152,0.292-0.296,0.444-0.436c-2.728,5.383-5.155,10.707-8.597,15.748
						c-1.831,2.677-4.136,5.176-6.508,7.426C432.926,235.393,432.769,235.279,432.748,235.161z"/>
					<path style="fill:#CE3A10;" d="M404.855,322.319c10.576-15.355,20.556-30.134,29.918-46.246
						c10.022-17.249,19.566-32.946,27.745-51.092c-7.278,17.858-13.879,33.242-24.286,49.802
						c-10.601,16.868-22.806,33.018-32.388,50.191c0.41-0.254,0.816-0.524,1.214-0.812c-0.622,1.37-1.095,2.829-1.378,4.427
						C401.4,330.117,403.95,324.298,404.855,322.319z"/>
					<path style="fill:#CE3A10;" d="M445.963,220.102c1.865-2.973,3.375-6.233,5.527-9.176c0.186-0.258,0.381-0.52,0.575-0.778
						c1.095-0.275,2.275-0.338,3.514-0.161c-1.717,0.588-3.028,2.233-3.924,3.861c-2.427,4.373-4.521,8.885-6.867,13.299
						c-0.123-0.562-0.309-0.96-0.317-1.573C444.436,223.515,444.817,221.933,445.963,220.102z"/>
					<path style="fill:#CE3A10;" d="M456.256,226.5c1.497-4.119,4.466-7.109,4.207-11.887c-0.03-0.478-0.88-2.791-1.987-3.814
						c2.182,0.951,3.586,2.495,4.389,4.36c-0.127,3.205-2.99,10.386-4.719,13.562c-0.981,1.801-1.353,3.243-3.586,2.947
						C454.991,230.111,455.757,227.87,456.256,226.5z"/>
					<path style="fill:#CE3A10;" d="M454.154,255.015c9.054-12.614,17.368-24.366,26.206-36.828
						c-0.178,6.576-1.856,12.813-0.947,16.509c-0.292,0.343-0.694,0.622-1.252,0.808c-1.894-3.235-0.44-5.954,0.097-9.346
						c0.359-2.288,1.045-4.229,1.176-6.572c-6.931,11.638-13.777,22.121-21.778,33.268c-8.115,11.312-16.801,23.136-25.225,34.524
						c-2.605,4.499-5.286,8.935-8.132,13.261c2.914-5.294,5.772-10.462,8.952-14.572
						C439.725,275.761,447.206,264.686,454.154,255.015z"/>
					<path style="fill:#CE3A10;" d="M479.459,238.675c1.019-0.237,1.941-0.512,2.774-0.829c1.831,0.567,4.664,0.321,8.961-0.981
						C487.164,241.998,484.724,243.834,479.459,238.675z"/>
					<path style="fill:#CE3A10;" d="M484.81,307.569c-5.405,8.764-11.137,17.334-16.827,25.855
						C476.263,320.962,481.395,313.062,484.81,307.569z"/>
					<path style="fill:#CE3A10;" d="M485.599,306.292c-0.252,0.41-0.516,0.837-0.79,1.277
						C485.072,307.143,485.338,306.719,485.599,306.292z"/>
					<path style="fill:#CE3A10;" d="M448.175,313.583c15.27-25.356,38.021-62.941,43.087-76.739c0.296-0.089,0.6-0.182,0.909-0.283
						C483.814,265.468,464.502,289.5,448.175,313.583z"/>
					<path style="fill:#CE3A10;" d="M505.182,263.02c-3.045,1.975-4.026,6.588-8.013,7.024c-3.7,0.406-6.301-1.429-7.464-5.015
						c-1.357-4.504,1.286-7.405,2.22-11.654c-6.55,9.942-29.656,48.335-33.196,53.473c-6.538,9.494-9.282,12.754-15.651,21.474
						c-5.806,7.946-12.065,18.179-16.183,27.791c-0.546,1.269-1.763,2.922-2.444,3.899c0.546-1.539,1.214-3.286,1.954-5.142
						c8.618-19.27,21.766-36.139,34.185-53.071c3.713-6.026,26.611-48.034,31.483-49.413
						C490.136,282.988,503.254,258.875,505.182,263.02z"/>
					<path style="fill:#CE3A10;" d="M505.11,267.722c-4.842,12.796-11.223,24.852-18.268,36.524
						c2.605-4.334,3.928-6.906,5.222-9.587c2.969-6.153,6.483-14.314,7.075-15.773c2.089-5.172,4.094-10.403,6.195-15.38
						C505.491,264.305,505.436,265.646,505.11,267.722z"/>
					<g>
						<path style="fill:#CE3A10;" d="M440.749,380.351c9.798-14.352,22.26-23.728,33.813-36.799
							c5.793-7.096,6.474-11.616,12.293-9.751c-0.123,0.161-0.254,0.317-0.385,0.469c-4.47,0.643-4.884,1.531-7.396,6.123
							c-6.098,11.16-22.374,22.966-29.889,31.466c-8.635,9.764-9.705,12.631-15.727,21.973c0.431-1.04,1.011-2.271,1.708-3.641
							c0.393-1.201,1.036-2.343,1.675-3.463c0.347-0.609,0.694-1.214,0.998-1.823C438.778,383.328,439.751,381.814,440.749,380.351z
							"/>
						<path style="fill:#CE3A10;" d="M493.245,336.989c-1.425-0.863-2.668-1.556-3.768-2.098c-0.47,0.186-0.964,0.368-1.472,0.554
							c1.442,2.508,3.835,2.571,6.732,3.079c-8.872,13.363-3.07-0.102-13.583,18.264c-11.016,19.258-42.161,48.914-58.708,66.146
							c-9.891,10.301-20.509,16.272-27.66,20.23c-9.764,5.404-10.293,5.459-16.429,8.271c-9.557,4.381-16.281,7.011-25.246,9.384
							c-10.644,2.821-19.841,5.345-28.997,11.435c-1.081,0.72-2.161,1.446-3.24,2.177c0.424,1.027,0.744,2.099,1.014,3.19
							c13.075-7.347,26.039-14.161,44.581-19.528c15.38-2.893,29.086-15.951,43.429-21.787c33.45-29.563,58.04-57.494,83.865-94.179
							C495.203,339.835,495.668,338.609,493.245,336.989z"/>
						<g>
							<path style="fill:#CE3A10;" d="M364.331,296.414c1.599-3.205,7.489-22.319,5.785-28.853
								c-3.679,6.965-5.299,15.181-15.389,9.87c3.688-0.787,7.041,1.387,9.532-2.715c13.854-22.818,8.529,12.796,3.222,19.943
								c-8.999,13.401-15.71,26.908-27.191,36.617C343.081,324.924,360.144,304.791,364.331,296.414z"/>
							<path style="fill:#CE3A10;" d="M349.754,335.234c-14.568,5.015-18.184,2.956-29.864,9.253
								c4.326-5.645,9.286-8.208,15.389-10.53c0.305-0.118,0.647-0.195,0.956-0.313c0.837-0.326,1.645-0.706,2.465-1.074
								c-3.831,3.002-8.183,5.599-13.295,7.654c31.881-5.734,53.824-26.654,72.418-51.845c-4.677,8.5-12.395,18.632-15.799,22.941
								C372.759,323.043,358.935,332.075,349.754,335.234z"/>
							<path style="fill:#CE3A10;" d="M275.727,417.248c2.896-1.934,5.699-4.043,8.389-6.349c0.284-0.241,0.516-0.436,0.778-0.672
								c13.05-19.338,11.929-44.144,21.342-65.047c2.736-3.265,5.874-7.925,0.453-4.795c-1.7,3.167-3.311,6.521-4.813,10.162
								c-7.244,25.431-6.965,49.774-26.487,66.441C275.501,417.076,275.615,417.161,275.727,417.248z"/>
							<g>
								<path style="fill:#CE3A10;" d="M463.931,339.509c-5.501,8.246-7.252,10.813-7.147,10.948c0,0.004,0,0.004,0,0.004
									c-7.574,11.841-14.56,23.795-19.943,36.266c-0.638,1.121-1.281,2.262-1.675,3.463c-0.698,1.37-1.277,2.601-1.708,3.641
									c6.022-9.341,7.092-12.208,15.727-21.973c7.515-8.5,23.791-20.306,29.889-31.466c2.512-4.592,2.926-5.48,7.396-6.123
									c0.131-0.152,0.262-0.309,0.385-0.469c0.774,0.245,1.641,0.605,2.622,1.091c-0.47,0.186-0.964,0.368-1.472,0.554
									c1.442,2.508,3.835,2.571,6.732,3.079c-8.872,13.363-3.07-0.102-13.583,18.264c-11.016,19.258-42.161,48.914-58.708,66.146
									c-9.891,10.301-20.509,16.272-27.66,20.23c-9.764,5.404-10.293,5.459-16.429,8.271c-9.557,4.381-16.281,7.011-25.246,9.384
									c-10.644,2.821-19.841,5.345-28.997,11.435c-2.013,1.34-4.022,2.702-6.03,4.072c-1.019-1.383-2.355-2.533-3.658-3.654
									c-6.132-5.29-15.059-8.542-21.49-11.802c-13.727-6.948-24.628-14.171-38.131-21.575c0.398,0.178,0.795,0.359,1.193,0.537
									c16.995,7.65,32.756,14.116,51.049,18.628l-0.457-0.165c0.824,0.262,1.658,0.524,2.495,0.787
									c2.647,0.211,5.248-0.118,7.345-1.235c0.114,0,0.224-0.008,0.33-0.021c4.356-0.457,5.345-2.647,6.512-5.514
									c1.163-2.846-0.727-4.377-2.723-5.637c-0.486-1.45-1.34-2.719-2.482-3.764c0.186,0.076,0.376,0.152,0.562,0.228
									c-0.343-0.216-0.689-0.431-1.036-0.639c-0.812-0.66-1.751-1.218-2.787-1.653c-6.55-3.768-13.38-7.011-19.617-11.354
									c-0.376-0.013-0.727-0.063-1.108-0.038c-0.013,0-0.025,0.004-0.038,0.008c-6.694-3.649-13.566-7.223-20.463-10.821
									c3.662-2.3,7.185-4.872,10.534-7.743c0.284-0.241,0.516-0.436,0.778-0.672c13.05-19.338,11.929-44.144,21.342-65.047
									c2.736-3.265,5.874-7.925,0.453-4.795c6.313-11.747,13.853-20.937,21.461-32.862c4.74-9.946,12.784-17.642,20.67-25.224
									c2.009-3.265,4-4.461,5.907-4.867c10.09,5.311,11.71-2.905,15.389-9.87c1.704,6.533-4.186,25.647-5.785,28.853
									c-4.186,8.377-21.25,28.51-24.04,34.862c-0.52,0.44-1.049,0.871-1.59,1.294c-0.82,0.368-1.628,0.749-2.465,1.074
									c-0.309,0.118-0.651,0.195-0.956,0.313c-6.102,2.322-11.063,4.884-15.389,10.53c11.68-6.297,15.295-4.237,29.864-9.253
									c9.181-3.159,23.004-12.191,32.27-23.914c3.404-4.309,11.122-14.441,15.799-22.941
									c12.488-16.915,23.465-35.758,34.925-53.219c0.021,0.118,0.178,0.233,0.262,0.321c2.372-2.25,4.677-4.749,6.508-7.426
									c3.442-5.041,5.869-10.365,8.597-15.748c1.133-1.049,2.465-1.793,3.95-2.161c-0.195,0.258-0.389,0.52-0.575,0.778
									c-2.152,2.943-3.662,6.204-5.527,9.176c-1.146,1.831-1.527,3.413-1.493,5.472c0.008,0.613,0.195,1.011,0.317,1.573
									c2.347-4.415,4.44-8.927,6.867-13.299c0.897-1.628,2.207-3.273,3.924-3.861c0.706,0.093,1.429,0.271,2.174,0.529
									c0.249,0.089,0.49,0.182,0.723,0.283c1.108,1.023,1.958,3.337,1.987,3.814c0.258,4.779-2.71,7.768-4.207,11.887
									c-0.499,1.37-1.264,3.611-1.696,5.168c2.233,0.296,2.605-1.146,3.586-2.947c1.73-3.176,4.593-10.356,4.719-13.562
									c0.939,2.182,1.053,4.804,0.626,7.426c-0.326,0.803-0.651,1.603-0.973,2.398c-8.179,18.146-17.723,33.843-27.745,51.092
									c-9.362,16.112-19.342,30.891-29.918,46.246c-0.905,1.979-3.455,7.798,0.825,6.271c0.283-1.598,0.757-3.057,1.378-4.427
									c7.13-5.066,12.259-14.475,17.241-23.525c2.846-4.326,5.527-8.762,8.132-13.261c8.424-11.388,17.11-23.212,25.225-34.524
									c8.001-11.147,14.847-21.63,21.778-33.268c-0.131,2.343-0.816,4.284-1.176,6.572c-0.537,3.391-1.992,6.111-0.097,9.346
									c0.558-0.186,0.96-0.465,1.252-0.808c0.381,1.556,1.218,2.664,2.821,3.15c-0.833,0.317-1.755,0.592-2.774,0.829
									c5.265,5.159,7.705,3.324,11.735-1.81c0.021-0.004,0.047-0.013,0.068-0.021c-5.066,13.798-27.817,51.384-43.087,76.739
									c-0.004,0.008-0.009,0.013-0.013,0.021c-9.798,14.454-18.522,28.925-23.148,44.482c0.448-1.083,0.909-2.152,1.391-3.218
									c-0.74,1.856-1.408,3.603-1.954,5.142c0.681-0.977,1.899-2.63,2.444-3.899c4.119-9.612,10.377-19.846,16.183-27.791
									c6.369-8.72,9.113-11.98,15.651-21.474c3.539-5.138,26.645-43.531,33.196-53.473c-0.935,4.25-3.578,7.151-2.22,11.654
									c1.163,3.586,3.764,5.421,7.464,5.015c3.988-0.436,4.969-5.049,8.013-7.024c0.064,0.131,0.114,0.292,0.152,0.486
									c-2.102,4.977-4.106,10.208-6.195,15.38c-0.592,1.459-4.106,9.62-7.075,15.773c-1.294,2.681-2.618,5.252-5.222,9.587
									c-0.288,0.482-0.592,0.985-0.918,1.514c-0.106,0.173-0.216,0.351-0.325,0.533c-3.4,5.531-8.673,13.672-17.617,27.132
									c-0.736,1.104-1.493,2.241-2.275,3.417c-0.44,0.664-0.863,1.294-1.264,1.899
									C464.269,339.002,464.096,339.256,463.931,339.509z"/>
								<g>
									<path style="fill:#AF310E;" d="M306.689,340.385c-18.907,20.818-11.783,58.096-37.661,75.915
										c1.628,1.622,3.158,2.269,4.554,2.342c11.602,0.612,22.307-37.952,26.043-52.503
										C299.694,355.523,314.259,335.252,306.689,340.385z"/>
									<path style="fill:#AF310E;" d="M499.626,332.511c-2.076,4.808-3.472,7.481-6.03,13.189
										c-1.408,3.138-0.393,1.624-3.764,7.062c-15.152,24.459-36.778,48.195-57.05,69.529
										c-5.227,5.502-14.911,14.619-19.473,18.014c-11.688,8.69-20.691,13.367-33.162,18.421
										c-13.515,5.472-27.61,10.525-39.704,19.131c2.415-1.501,4.893-2.897,7.506-4.068c-6.969,4.656-13.164,9.798-21.004,12.987
										c1.171-0.727,2.326-1.484,3.472-2.245c-4.58,2.77-9.252,5.48-13.392,8.758c-16.775,9.35-33.978,17.499-51.9,24.379
										c-9.337,3.785-18.547,7.756-27.707,11.951c-2.423-2.368-3.442-4.969-3.899-8.276c1.019-0.44,1.599-0.25,2.613-1.045
										c0.351-0.275,0.715-0.554,1.087-0.829c3.903-2.888,8.923-5.709,13.109-7.502c5.464-2.343,10.111-4.11,15.118-6.821
										c0.055-0.03,0.106-0.059,0.161-0.085c0.596,0.19,1.197,0.381,1.797,0.567c1.057,0.161,2.127,0.292,3.205,0.389
										c5.261,0.507,10.711,0.385,15.816,0.537c3.455,0.106,5.552-0.245,6.702-3.658c1.049-3.104,0.787-5.595-2.085-7.857
										c-0.233-0.186-0.47-0.372-0.711-0.562c-0.474-0.385-0.956-0.778-1.446-1.18c2.351-1.146,4.702-2.284,7.045-3.43
										c0.068-0.034,0.131-0.063,0.199-0.097c0.909,0.178,1.823,0.351,2.723,0.516c2.207,0.398,4.356,0.74,6.225,0.99
										c7.971,1.053,13.359-0.617,14.585-8.183c0.254-1.577,0.148-2.918-0.211-4.098c-0.3-0.994-0.782-1.869-1.366-2.668
										c2.009-1.37,4.017-2.732,6.03-4.072c9.155-6.089,18.353-8.614,28.997-11.435c8.965-2.372,15.689-5.003,25.246-9.384
										c6.136-2.812,6.664-2.867,16.429-8.271c7.151-3.958,17.769-9.929,27.66-20.23c16.547-17.232,47.692-46.888,58.708-66.146
										c10.513-18.365,4.711-4.901,13.583-18.264c-2.897-0.507-5.29-0.571-6.732-3.079c0.507-0.186,1.002-0.368,1.472-0.554
										c4-1.582,6.694-3.37,7.531-8.161c0.216-1.235,0.567-2.778-0.731-3.446c-1.637-0.841-2.846,0.512-3.81,1.611
										c-2.385,2.728-3.463,6.165-5.612,8.906c-0.123,0.161-0.254,0.317-0.385,0.469c-4.47,0.643-4.884,1.531-7.396,6.123
										c-6.098,11.16-22.374,22.966-29.889,31.466c-8.635,9.764-9.705,12.631-15.727,21.973c0.431-1.04,1.011-2.271,1.708-3.641
										c0.326-0.643,0.681-1.319,1.057-2.021c1.277-2.376,2.821-5.049,4.525-7.819c6.018-9.785,14.001-20.784,19.08-24.184
										c1.328-1.429,3.151-3.539,4.347-4.931c5.531-6.407,17.829-27.817,24.459-30.227c3.869-1.823,11.003-3.438,11.946,2.072
										C501.233,326.878,501.144,328.992,499.626,332.511z"/>
									<path style="fill:#AF310E;" d="M505.859,242.062c-3.007-1.294-5.51-1.239-7.996,1.438
										c-2.597,2.795-5.819,5.912-8.589,8.754c-0.875,0.896-1.67,2.059-2.474,3.032c0.114-0.279,0.245-0.537,0.351-0.833
										c1.239-3.484,1.873-6.994,3.954-10.17c1.514-4.592,3.184-10.623,4.148-15.076c1.7-7.857,0.474-13.363-6.969-15.207
										c-5.121-1.264-8.043,1.649-10.813,4.373c-5.768,5.675-9.739,14.31-13.511,20.459c-8.047,13.109-16.133,23.389-24.611,36.24
										c0.207-0.381,0.419-0.761,0.63-1.142c9.012-16.319,16.742-31.496,22.725-49.362c-0.063,0.14-0.123,0.279-0.186,0.414
										c-8.179,18.146-17.723,33.843-27.745,51.092c-9.362,16.112-19.342,30.891-29.918,46.246
										c-0.905,1.979-3.455,7.798,0.825,6.271c0.283-1.598,0.757-3.057,1.378-4.427c1.387-3.057,3.514-5.65,5.899-8.242
										c4.132-4.867,7.857-9.993,11.341-15.283c2.846-4.326,5.527-8.762,8.132-13.261c8.424-11.388,17.11-23.212,25.225-34.524
										c8.001-11.147,14.847-21.63,21.778-33.268c-0.131,2.343-0.816,4.284-1.176,6.572c-0.537,3.391-1.992,6.111-0.097,9.346
										c0.558-0.186,0.96-0.465,1.252-0.808c0.765-0.888,0.833-2.203,1.15-3.4c0.888-3.358,1.763-6.516,3.1-9.637
										c0.964-2.262,2.326-4.58,5.074-3.696c2.744,0.884,2.685,3.057,2.25,5.81c-1.116,7.087-2.474,11.701-8.754,14.073
										c-0.833,0.317-1.755,0.592-2.774,0.829c5.265,5.159,7.705,3.324,11.735-1.81c0.038-0.051,0.076-0.097,0.114-0.148
										c-0.017,0.042-0.03,0.085-0.047,0.127c-5.066,13.798-27.817,51.384-43.087,76.739c-0.004,0.008-0.009,0.013-0.013,0.021
										c-5.84,9.697-10.589,17.604-12.826,21.702c-2.524,4.618-6.229,12.8-8.931,19.562c-0.74,1.856-1.408,3.603-1.954,5.142
										c0.681-0.977,1.899-2.63,2.444-3.899c4.119-9.612,10.377-19.846,16.183-27.791c6.369-8.72,9.113-11.98,15.651-21.474
										c3.539-5.138,26.645-43.531,33.196-53.473c-0.935,4.25-3.578,7.151-2.22,11.654c1.163,3.586,3.764,5.421,7.464,5.015
										c3.988-0.436,4.969-5.049,8.013-7.024c0.152-0.101,0.309-0.194,0.474-0.279c-0.11,0.254-0.216,0.512-0.321,0.765
										c-2.102,4.977-4.106,10.208-6.195,15.38c-0.592,1.459-4.106,9.62-7.075,15.773c-1.294,2.681-2.618,5.252-5.222,9.587
										c-0.288,0.482-0.592,0.985-0.918,1.514c-0.106,0.173-0.216,0.351-0.325,0.533c-0.261,0.427-0.527,0.851-0.79,1.277
										c-3.414,5.493-8.547,13.393-16.827,25.855c-0.736,1.104-1.493,2.241-2.275,3.417c-0.44,0.664-0.863,1.294-1.264,1.899
										c-0.169,0.258-0.338,0.516-0.512,0.77c-5.501,8.246-7.252,10.813-7.147,10.948c0,0.004,0,0.004,0,0.004
										c0.334,0.237,11.98-14.306,22.201-29.889c8.276-12.614,18.399-30.147,27.5-52.648c1.459-6.123,1.793-12.771,2.474-18.881
										C509.344,245.606,509.166,243.487,505.859,242.062z M504.738,253.129c-0.537,2.998-2.829,9.434-4.69,9.751
										c-3.616,0.622-4.787-0.63-5.916-3.912c-0.753-2.191,1.78-6.144,3.776-8.876c1.036-1.421,3.197-5.506,6.483-4.153
										C507.462,247.2,504.886,252.287,504.738,253.129z"/>
									<path style="fill:#AF310E;" d="M448.382,211.775c-0.089,0.178-0.182,0.355-0.266,0.533
										c-2.728,5.383-5.155,10.707-8.597,15.748c-1.831,2.677-4.136,5.176-6.508,7.426c-0.084-0.089-0.241-0.203-0.262-0.321
										c-0.008-0.013-0.008-0.021-0.008-0.034c0.008-0.385,0.089-0.732,0.131-1.104c4.834-5.861,8.618-12.394,12.906-18.611
										c0.617-0.896,1.248-1.789,1.894-2.668C447.904,212.418,448.141,212.097,448.382,211.775z"/>
									<path style="fill:#AF310E;" d="M384.95,300.398c-5.469,5.759-8.941,9.344-13.894,13.745
										c-3.29,2.924-6.687,5.729-10.193,8.418c-0.004,0-0.004,0-0.009,0.004c0.004-0.008,0.009-0.013,0.009-0.021
										c-0.41,0.013-0.875-0.461-1.002-0.719c-0.52-1.083,1.924-3.569,2.368-3.933c4.377-3.578,12.581-17.325,13.947-19.888
										c5.683-10.665,3.683-15.405,3.023-25.318c-0.951-5.895-4.182-19.994-11.713-20.163c-8.365-0.19-11.46,19.156-13.376,24.573
										c0.211,0.118,0.414,0.228,0.617,0.334c10.09,5.311,11.709-2.905,15.388-9.87c-2.206,12.038-5.639,21.549-8.449,28.108
										c-7.431,17.345-11.147,26.018-19.948,31.542c-3.333,2.092-10.122,5.455-17.797,12.991c-1.78,1.748-3.152,3.272-4.031,4.285
										c11.68-6.297,15.295-4.237,29.864-9.253c9.18-3.159,23.004-12.191,32.27-23.914c3.494-4.421,4.13-6.476,15.799-22.941
										c2.212-3.122,4.049-5.675,5.264-7.356C396.162,288.527,390.039,295.04,384.95,300.398z"/>
									<path style="fill:#AF310E;" d="M462.87,214.833c0.004,0.101,0,0.211-0.004,0.326c-0.127,3.205-2.99,10.386-4.719,13.562
										c-0.981,1.801-1.353,3.243-3.586,2.947c0.431-1.556,1.197-3.797,1.696-5.168c1.497-4.119,4.466-7.109,4.207-11.887
										c-0.03-0.478-0.88-2.791-1.987-3.814c-0.22-0.207-0.453-0.359-0.689-0.44c-0.254-0.085-0.803-0.647-1.412-0.567
										c-0.275,0.038-0.537,0.106-0.795,0.195c-1.717,0.588-3.028,2.233-3.924,3.861c-2.427,4.373-4.521,8.885-6.867,13.299
										c-0.123-0.562-0.309-0.96-0.317-1.573c-0.034-2.059,0.347-3.641,1.493-5.472c1.865-2.973,3.375-6.233,5.527-9.176
										c0.186-0.258,0.381-0.52,0.575-0.778c1.417-1.89,3.091-3.645,5.836-2.254C460.666,209.289,462.764,210.456,462.87,214.833z
										"/>
								</g>
								<g>
									<path style="fill:#644944;" d="M490.286,233.07c0.506-1.036,1.363-3.668,1.619-5.498c0.113-0.811,0.603-2.827,0.891-4.036
										c0.752-3.167,0.545-6.445-3.087-7.533c-3.631-1.088-5.886,0.858-7.224,4.204c-1.754,4.387-2.907,9.031-4.052,13.667
										c0.941,1.83,0.833,4.203,3.462,4.865C485.375,239.614,488.557,236.611,490.286,233.07z"/>
									<path style="fill:#644944;" d="M498.716,323.038c-0.771-3.147-2.965-3.107-5.241-1.122
										c-3.6,3.141-6.243,7.427-7.018,12.384c0.512,0.397,1.023,0.764,1.574,1.11
										C495.179,335.354,500.453,330.134,498.716,323.038z"/>
									<path style="fill:#644944;" d="M358.149,276.036c2.104,0.991,4.464,0.192,6.474-0.924
										c2.328-5.911,4.963-11.274,5.099-17.737c0.029-1.39-0.787-2.532-2.218-2.751c-1.431-0.219-2.494,0.334-3.286,1.586
										c-3,4.736-4.867,9.736-6.794,15.061C356.79,273.021,355.809,274.934,358.149,276.036z"/>
									<path style="fill:#644944;" d="M498.107,267.735c2.459-0.847,3.879-4.657,5.453-7.726c1.109-2.163,3.078-6.776,3.668-9.943
										c0.403-2.162,1.103-4.845-1.493-5.95c-1.377-0.586-2.908-0.698-4.145-0.364c-1.466,0.396-2.599,1.64-3.252,2.609
										c-3.041,4.517-5.523,10.578-6.94,15.182c-0.552,1.793-0.369,1.857,0.069,2.836
										C492.658,267.044,494.753,268.89,498.107,267.735z"/>
									<path style="fill:#644944;" d="M451.042,232.397c1.585,0.221,2.21-0.256,3.533-0.711c1.833-4.829,3.913-9.842,5.921-14.514
										c1.426-3.317,0.072-5.165-2.613-6.776c-0.809-0.485-1.616-0.537-2.207-0.417c-1.702,0.344-2.556,1.659-3.294,2.9
										c-2.79,4.695-4.954,9.541-7.586,14.271C446.038,229.873,448.144,231.992,451.042,232.397z"/>
								</g>
							</g>
						</g>
					</g>
				</g>
			</g>
		</g>
		<g>
			<path style="fill:#188CAF;" d="M327.439,260.335c0,2.553-0.148,5.066-0.443,7.54c-0.025,0.221-0.054,0.448-0.079,0.669
				c-4.028,31.33-30.798,55.538-63.225,55.538c-13.525,0-26.062-4.215-36.381-11.396c-0.133-0.093-0.266-0.182-0.393-0.275
				c-15.434-10.914-25.801-28.521-26.879-48.598c-0.064-1.151-0.093-2.312-0.093-3.477c0-5.086,0.595-10.033,1.721-14.775
				c0.005-0.02,0.01-0.039,0.015-0.059c0.025-0.113,0.054-0.221,0.079-0.33c0.123-0.511,0.256-1.018,0.393-1.525
				c0.049-0.197,0.103-0.393,0.162-0.59c1.362-4.854,3.285-9.473,5.695-13.781c0.005-0.015,0.01-0.025,0.02-0.034
				c2.385-4.264,5.248-8.219,8.518-11.809c1.043-1.146,2.13-2.258,3.251-3.32c2.794-2.656,5.828-5.061,9.064-7.171
				c3.443-2.253,7.117-4.181,10.983-5.74c7.363-2.971,15.414-4.608,23.844-4.608c0.398,0,0.802,0.005,1.2,0.01
				c0.241,0.005,0.482,0.01,0.728,0.02c0.969,0.029,1.933,0.079,2.887,0.152c3.763,0.275,7.427,0.885,10.978,1.79
				c10.358,2.636,19.703,7.815,27.336,14.834c0.177,0.157,0.349,0.32,0.521,0.482C319.713,225.508,327.439,242.019,327.439,260.335z
				"/>
			<g>
				<path style="fill:#147690;" d="M326.997,267.874c-0.025,0.221-0.054,0.448-0.079,0.669
					c-4.028,31.33-30.798,55.538-63.225,55.538c-13.525,0-26.062-4.215-36.381-11.396c-0.093,0.089-0.187,0.177-0.28,0.266
					c-0.098-0.054-0.197-0.108-0.295-0.162c0.044-0.143,0.103-0.271,0.182-0.379c0.202-0.3,0.536-0.457,1.072-0.374
					c4.181,4.363,8.932,6.723,15.335,6.33c4.756-0.29,9.586,0.207,14.288-0.934c3.935-0.954,7.904-1.815,11.706-3.261
					c0.841-0.32,1.294-0.949,1.431-1.825c0.61-0.261,1.175-0.138,1.716,0.192c0.108,0.064,0.211,0.123,0.32,0.177
					c0.344,0.182,0.693,0.33,1.043,0.448c0,0,0.005,0,0.01,0c2.105,0.703,4.249,0.266,6.374-0.452
					c4.343-1.461,7.83-4.279,11.371-7.063c3.064-2.41,5.587-5.238,7.599-8.548c1.938-3.182,4.446-5.809,7.377-8.1
					c3.315-2.592,3.212-3.571-0.423-5.813c-0.497-0.305-0.979-0.634-1.475-0.939c-0.167-0.108-0.339-0.211-0.516-0.31
					c-0.025-0.015-0.054-0.03-0.079-0.044c-1.318-0.438-2.587-0.984-3.625-1.908c-0.723-0.644-1.485-1.338-0.915-2.484
					c1.23-0.689,1.185,0.689,1.667,1.107c2.071,1.805,3.62,1.598,4.53-0.905c0.935-2.567,1.658-5.213,2.469-7.825
					c1.284,0.118,1.682,1.19,2.159,2.105c1.156,2.208,2.739,4.058,4.638,5.627c2.479,2.051,5.086,1.554,6.817-1.151
					c1.166-1.825,1.431-3.984,2.312-5.907C324.906,268.828,325.752,267.992,326.997,267.874z"/>
				<path style="fill:#17768E;" d="M268.508,196.775c-0.123,0.005-0.251,0.015-0.374,0.03c-0.743,0.079-1.466,0.093-2.007,0.703
					c-0.61-0.015-0.875-0.526-1.234-0.905c0.241,0.005,0.482,0.01,0.728,0.02C266.59,196.652,267.554,196.701,268.508,196.775z"/>
				<path style="fill:#17768E;" d="M307.343,213.881c-2.577,1.717-5.543,2.292-8.558,2.73c-0.059,0.01-0.118,0.015-0.177,0.025
					c-0.108,0.005-0.211,0.01-0.31-0.005c-0.433-0.03-0.807-0.207-1.087-0.595c0.103-2.021-1.225-3.379-2.459-4.599
					c-3.177-3.133-6.232-6.34-9.915-9.015c-1.805-1.308-3.379-2.926-5.351-3.856c10.358,2.636,19.703,7.815,27.336,14.834
					C306.999,213.556,307.171,213.719,307.343,213.881z"/>
				<path style="fill:#14A795;" d="M327.439,260.335c0,2.553-0.148,5.066-0.443,7.54c-0.025,0.221-0.054,0.448-0.079,0.669
					c-1.121,0.507-1.741,1.584-2.14,2.941c-0.526,1.79-0.895,3.62-1.859,5.277c-2.189,3.758-5.632,4.343-8.927,1.461
					c-2.631-2.307-4.476-5.14-5.799-8.346c0.059-0.152,0.123-0.31,0.182-0.462c0.182-1.264-0.31-2.548-0.03-3.812
					c0.034-0.152,0.084-0.305,0.143-0.457c0-0.044,0-0.084,0.005-0.128c0.103-3.285,0.821-6.522,0.841-9.822
					c0.064-12.935-3.271-24.906-10.151-35.874c-0.541-0.861-1.23-1.692-0.885-2.69c0.064-0.202,0.172-0.408,0.329-0.62
					c2.73-0.871,5.459-1.741,8.194-2.612c0.177,0.157,0.349,0.32,0.521,0.482C319.713,225.508,327.439,242.019,327.439,260.335z"/>
				<g>
					<path style="fill:#18C5AF;" d="M250.842,217.958c0.108-0.63,0.093-1.313-0.015-1.943c-0.639-3.684,1.116-6.035,4.126-7.815
						c2.617-1.549,5.504-1.864,8.42-2.189c1.825-0.197,3.63-0.6,4.407-2.523c0.772-1.908,0.246-3.664-1.082-5.204
						c-0.212-0.241-0.384-0.516-0.571-0.777c-0.108-0.384-0.28-0.674-0.507-0.885c-0.246-0.01-0.487-0.015-0.728-0.02
						c-0.398-0.005-0.802-0.01-1.2-0.01c-8.43,0-16.481,1.638-23.844,4.608c0.93,0.556,1.067,1.175,0.339,2.331
						c-2.931,4.663-1.987,9.202,2.321,12.674c1.613,1.298,3.561,1.957,5.233,3.133C249.509,220.58,250.478,220.113,250.842,217.958z
						"/>
					<path style="fill:#18C5AF;" d="M226.968,215.268c0.561-0.58,1.092-1.215,1.731-1.702c3.428-2.597,3.487-3.492,0.32-6.591
						c-0.054-0.015-0.103-0.03-0.152-0.034c-3.236,2.11-6.271,4.515-9.064,7.171c-0.093,0.162-0.162,0.349-0.182,0.561
						c0.379,0.3,0.762,0.595,1.136,0.905C223.388,217.762,224.632,217.698,226.968,215.268z"/>
					<path style="fill:#18C5AF;" d="M299.527,277.497c-1.547-2.019-1.341-4.232-0.749-6.503c0.45-1.73,1.067-3.434,0.999-5.261
						c-0.16-4.285-2.816-6.749-6.302-8.599c-3.687-1.957-7.801-2.878-11.541-4.682c-5.667-2.734-11.669-3.438-17.852-3.373
						c-1.85,0.019-3.179,0.676-3.801,2.426c-0.566,1.591-1.761,2.512-3.149,3.255c-1.723,0.922-3.53,1.701-5.198,2.711
						c-2.824,1.71-3.778,4.072-3.11,7.29c0.352,1.694,1.041,3.238,2.016,4.685c2.669,3.963,6.841,5.33,11.105,6.582
						c6.873,2.018,8.657,4.363,8.785,11.549c0.074,4.118-1.239,8.044-1.715,12.083c-0.513,4.349-1.283,8.793,1.737,12.683
						c0.438,0.243,0.875,0.486,1.313,0.728c1.092,0.43,2.069,0.074,3.031-0.431c12.617-6.613,22.355-16.124,28.978-28.774
						c0.421-0.804,0.836-1.601,0.44-2.542C302.765,280.161,300.377,279.832,299.527,277.497z"/>
					<path style="fill:#18C5AF;" d="M310.327,256.245c0.277-12.265-2.298-23.84-8.493-34.563c-1.082-1.872-2.738-3.449-3.207-5.671
						c-0.472,0.008-0.945,0.016-1.418,0.024c-2.155,0.932-4.472,1.37-6.621,2.373c-4.09,1.911-4.172,1.925-3.357,6.455
						c0.143,0.797,0.158,1.62,0.199,2.433c0.143,2.794,1.591,3.647,4.108,2.351c0.641-0.33,1.202-0.835,1.757-1.309
						c1.04-0.888,1.357-0.369,1.52,0.693c0.372,2.423-1.082,4.204-3.976,4.513c-3.495,0.373-7.003,0.266-10.503-0.113
						c-1.939-0.21-3.575,0.063-4.013,2.451c-0.129,0.706,0.387,1.931-0.717,2.047c-0.991,0.104-1.759-0.82-2.243-1.661
						c-0.393-0.685-0.589-1.511-0.743-2.3c-0.645-3.29-1.729-4.379-4.979-4.643c-1.537-0.125-3.102-0.154-4.635-0.015
						c-2.404,0.219-3.646,2.404-2.684,4.609c0.833,1.909,2.267,3.356,3.822,4.698c1.415,1.221,2.979,2.329,4.161,3.75
						c2.023,2.432,4.558,3.332,7.394,2.377c4.04-1.36,7.072,0.024,10.048,2.572c2.073,1.774,3.944,3.957,6.857,4.484
						c1.216,0.929,2.735,0.997,4.128,1.31c5.044,1.13,8.008,4.257,9.422,9.127c0.698,2.404,1.06,4.918,2.219,7.181
						c0.8-1.212,0.52-2.688,0.971-3.985c0,0,0,0-0.001,0c0,0,0,0,0,0C309.686,262.369,310.258,259.312,310.327,256.245z"/>
					<path style="fill:#18C5AF;" d="M234.96,292.569c-1.441-0.28-2.902-0.457-4.358-0.63c-2.085-0.246-3.403-1.318-4.092-3.33
						c-0.63-1.839-0.925-3.807-1.957-5.504c-0.001-0.001-0.002-0.001-0.002-0.002c-0.162-1.032-0.938-1.522-1.795-1.786
						c-1.484-0.457-2.13-1.452-2.039-2.917c0.13-2.092-1.149-2.943-2.886-3.257c-1.986-0.359-4.005-0.535-6.01-0.791
						c-0.002-0.001-0.003-0.001-0.005-0.002c-3.738-0.792-5.292-3.949-7.2-6.699c-1.421-2.051-2.494-4.358-4.436-6.03
						c-0.084,0.733-0.128,1.461-0.138,2.189c-0.034,2.376,0.27,4.726,0.669,7.053c2.292,13.496,8.238,25.182,17.701,35.053
						c2.498,2.607,5.115,5.115,8.327,6.871c0.098,0.054,0.197,0.108,0.295,0.162c0.093-0.089,0.187-0.177,0.28-0.266
						c0.226-0.216,0.452-0.433,0.679-0.649c0.29-0.379,0.531-0.812,0.875-1.136c2.926-2.735,5.922-5.346,9.507-7.259
						c3.182-1.697,3.571-3.635,2.223-6.959C239.534,294.055,237.464,293.051,234.96,292.569z"/>
					<path style="fill:#18C5AF;" d="M203.64,254.747c1.549,2.813,3.836,2.907,5.715,0.275c0.516-0.728,1.013-1.5,1.362-2.317
						c1.52-3.561,4.131-5.912,7.618-7.53c2.282-1.057,4.476-2.39,6.31-4.161c1.013-0.979,2.1-2.169,0.915-3.595
						c-0.944-1.131-0.871-1.78,0.389-2.405c1.097-0.551,1.943-0.654,2.43,0.836c0.393,1.2,1.417,1.962,2.513,2.562
						c0.693,0.384,1.131,0.334,1.495-0.526c1.662-3.93,0.856-8.892-2.385-11.445c-4.082-3.221-7.968-6.792-12.911-8.76
						c-0.182-0.084-0.364-0.167-0.541-0.251c-3.271,3.59-6.133,7.545-8.518,11.809c-0.01,0.01-0.015,0.02-0.02,0.034
						c-0.974,1.815-1.859,3.684-2.676,5.587c-1.151,2.69-2.213,5.41-3.02,8.194c-0.059,0.197-0.113,0.393-0.162,0.59
						c-0.143,0.507-0.275,1.013-0.393,1.525c-0.025,0.108-0.054,0.216-0.079,0.33c-0.005,0.02-0.01,0.039-0.015,0.059
						c-0.477,2.076-0.792,4.19-0.885,6.369C202.254,252.347,202.952,253.498,203.64,254.747z"/>
					<path style="fill:#18C5AF;" d="M261.994,210.856c-0.739-0.344-1.58-0.65-2.305-0.087c-0.765,0.594-0.962,1.505-0.76,2.433
						c0.497,2.282,2.454,2.265,4.025,2.611c0.483-0.048,0.81-0.055,1.128-0.115c1.254-0.237,2.452-0.658,2.587-2.136
						c0.149-1.625-1.361-0.948-2.104-1.344C263.709,211.762,262.872,211.265,261.994,210.856z"/>
				</g>
				<path style="fill:#14A795;" d="M272.063,313.072c11.531-5.633,21.141-13.482,28.057-24.411c1.523-2.407,2.93-4.889,4.391-7.336
					c0.605,0.231,1.241,0.4,1.806,0.702c4.834,2.578,5.083,4.611,0.736,7.851c-3.141,2.341-5.416,5.33-7.563,8.53
					c-4.716,7.028-11.158,12.028-18.93,15.252C277.75,314.825,274.75,315.33,272.063,313.072z"/>
			</g>
		</g>
	</g>
</g>
</svg>
