<svg xmlns="http://www.w3.org/2000/svg" viewBox="0 0 1210 924.94"><defs><style>.a{fill:#fff;}.b,.c{stroke:#fff;stroke-miterlimit:10;}.b{stroke-width:11px;}.c{fill:none;stroke-width:11.75px;}</style></defs><rect x="55.5" y="487.44" width="1103" height="437"/><path class="a" d="M1527,530V966H425V530H1527m1-1H424V967H1528V529Z" transform="translate(-369 -42.06)"/><polygon points="0.94 479.44 93.27 342.44 1101.76 342.44 1208.97 479.44 0.94 479.44"/><path class="a" d="M1470.51,385,1577,521H370.88l91.65-136h1008m.49-1H462L369,522H1579L1471,384Z" transform="translate(-369 -42.06)"/><rect x="485" y="148.94" width="243" height="243"/><path class="a" d="M1093,195V430H858V195h235m8-8H850V438h251V187Z" transform="translate(-369 -42.06)"/><polygon class="b" points="605.25 6.86 413.5 149.94 797 149.94 605.25 6.86"/><path class="a" d="M973.83,258.94a53.27,53.27,0,1,1-53.26,53.27,53.33,53.33,0,0,1,53.26-53.27m0-12.53a65.8,65.8,0,1,0,65.79,65.8,65.79,65.79,0,0,0-65.79-65.8Z" transform="translate(-369 -42.06)"/><polyline class="c" points="605.22 239.99 605.22 272.1 636.55 272.1"/><rect class="a" x="99.17" y="554.23" width="77" height="77"/><rect class="a" x="216.77" y="554.32" width="77" height="77"/><rect class="a" x="334.38" y="554.41" width="77" height="77"/><rect class="a" x="451.98" y="554.5" width="77" height="77"/><rect class="a" x="569.58" y="554.58" width="77" height="77"/><rect class="a" x="687.19" y="554.67" width="77" height="77"/><rect class="a" x="804.79" y="554.76" width="77" height="77"/><rect class="a" x="922.4" y="554.85" width="77" height="77"/><rect class="a" x="1040" y="554.94" width="77" height="77"/><rect class="a" x="98.67" y="666.73" width="77" height="77"/><rect class="a" x="216.33" y="666.76" width="77" height="77"/><rect class="a" x="334" y="666.78" width="77" height="77"/><rect class="a" x="451.67" y="666.81" width="77" height="77"/><rect class="a" x="569.33" y="666.83" width="77" height="77"/><rect class="a" x="687" y="666.86" width="77" height="77"/><rect class="a" x="804.67" y="666.89" width="77" height="77"/><rect class="a" x="922.33" y="666.91" width="77" height="77"/><rect class="a" x="1040" y="666.94" width="77" height="77"/><rect class="a" x="479" y="777.94" width="251" height="147"/></svg>